<?xml version="1.0" encoding="utf-8"?>
<!-- Generator: Adobe Illustrator 16.0.0, SVG Export Plug-In . SVG Version: 6.00 Build 0)  -->
<!DOCTYPE svg PUBLIC "-//W3C//DTD SVG 1.1//EN" "http://www.w3.org/Graphics/SVG/1.1/DTD/svg11.dtd">
<svg version="1.1" id="Layer_1" xmlns="http://www.w3.org/2000/svg" xmlns:xlink="http://www.w3.org/1999/xlink" x="0px" y="0px"
	 width="240px" height="240px" viewBox="0 0 240 240" enable-background="new 0 0 240 240" xml:space="preserve">
<circle fill="#FFFFFF" cx="120" cy="119.943" r="117"/>
<g>
	<path fill="#F68633" d="M67.438,151.655H61.65l2.947-8.405L67.438,151.655z M62.305,159.079v-0.219c0-0.109,0-0.109-0.109-0.109
		h-3.057c-0.109,0-0.109,0,0-0.108l2.293-6.551h6.113l2.184,6.551c0,0.108,0,0.108-0.109,0.108h-3.055c-0.111,0-0.111,0-0.111,0.109
		v0.219c0,0.108,0,0.108,0.111,0.108h12.008c0.107,0,0.107,0,0.107-0.108v-0.219c0-0.109,0-0.109-0.107-0.109h-2.076
		c-0.107,0-0.107,0-0.107-0.108L69.074,137.9h-3.275l-7.314,20.742c-0.109,0.108-0.109,0.108-0.109,0.108h-2.182
		c-0.111,0-0.111,0-0.111,0.109v0.219c0,0.108,0,0.108,0.111,0.108h5.895c0.107,0,0.107,0,0.107-0.108H62.305z M94.727,159.188
		h3.496l5.02-20.741c0-0.109,0.111-0.109,0.111-0.109h2.184c0.107,0,0.107,0,0.107-0.108v-0.219c0-0.109,0-0.109-0.107-0.109h-5.023
		c-0.109,0-0.109,0-0.109,0.109v0.219c0,0.108,0,0.108,0.109,0.108h2.074c0.109,0,0.109,0,0.109,0.109l-3.385,14.302l-3.273-14.302
		c0-0.109,0-0.109,0.107-0.109h2.186c0.107,0,0.107,0,0.107-0.108v-0.219c0-0.109,0-0.109-0.107-0.109H87.414
		c-0.107,0-0.107,0-0.107,0.109v0.219c0,0.108,0,0.108,0.107,0.108h2.074c0.109,0,0.109,0,0.109,0.109l-3.385,14.191l-3.057-14.191
		c0-0.109,0-0.109,0.109-0.109h2.074c0.109,0,0.109,0,0.109-0.108v-0.219c0-0.109,0-0.109-0.109-0.109H74.424
		c-0.109,0-0.109,0-0.109,0.109v0.219c0,0.108,0,0.108,0.109,0.108h1.965c0.107,0,0.107,0,0.107,0.109l5.133,20.741h3.383
		l4.912-19.977l4.912,19.977H94.727z M111.648,151.655h-5.785l2.947-8.405L111.648,151.655z M106.518,159.079v-0.219
		c0-0.109,0-0.109-0.109-0.109h-3.055c-0.111,0-0.111,0,0-0.108l2.291-6.551h6.113l2.184,6.551c0,0.108,0,0.108-0.109,0.108h-3.057
		c-0.109,0-0.109,0-0.109,0.109v0.219c0,0.108,0,0.108,0.109,0.108h12.01c0.109,0,0.109,0,0.109-0.108v-0.219
		c0-0.109,0-0.109-0.109-0.109h-2.076c-0.107,0-0.107,0-0.107-0.108l-7.314-20.742h-3.275l-7.314,20.742
		c-0.109,0.108-0.109,0.108-0.109,0.108h-2.184c-0.109,0-0.109,0-0.109,0.109v0.219c0,0.108,0,0.108,0.109,0.108h5.896
		c0.107,0,0.107,0,0.107-0.108H106.518z M142.217,159.297c0.98,0,1.855,0,2.619-0.218h0.109l-0.109-0.328v-0.108
		c-0.328,0.108-0.654,0.108-0.982,0.108c-0.873,0-1.311-0.218-1.637-1.419c-0.328-1.311-0.547-4.367-0.875-5.677
		c-0.654-2.62-3.383-3.712-6.986-3.93c4.039-0.327,7.096-1.747,7.096-4.804c0-3.385-3.711-5.021-9.715-5.021h-9.936
		c-0.109,0-0.109,0-0.109,0.109v0.219c0,0.108,0,0.108,0.109,0.108h2.293c0.109,0,0.109,0,0.109,0.109v20.196
		c0,0.108,0,0.108-0.109,0.108h-2.293c-0.109,0-0.109,0-0.109,0.109v0.219c0,0.108,0,0.108,0.109,0.108h11.025
		c0.109,0,0.109,0,0.109-0.108v-0.219c0-0.109,0-0.109-0.109-0.109h-2.291c-0.109,0-0.109,0-0.109-0.108v-10.59h1.855
		c1.639,0,2.402,0.328,2.621,1.855c0.219,1.311,0.219,3.385,0.436,4.913c0.547,3.057,2.947,4.476,6.988,4.476H142.217z
		 M135.01,142.922c0,3.821-0.654,4.695-2.838,4.695h-1.855v-9.171c0-0.109,0-0.109,0.109-0.109h1.201
		C134.246,138.337,135.01,139.102,135.01,142.922z M146.363,158.643c0,0.108,0,0.108-0.107,0.108h-2.295
		c-0.107,0-0.107,0-0.107,0.109v0.219c0,0.108,0,0.108,0.107,0.108h10.371c6.332,0,11.355-4.475,11.355-10.698
		c0-6.331-5.24-10.589-11.9-10.589h-9.934c-0.109,0-0.109,0-0.109,0.109v0.219c0,0.108,0,0.108,0.109,0.108h2.293
		c0.109,0,0.109,0,0.109,0.109v20.196H146.363z M152.588,158.643v-20.196c0-0.109,0-0.109,0.107-0.109h1.203
		c3.818,0,5.238,1.528,5.238,10.152c0,8.733-1.199,10.262-4.695,10.262h-1.637c-0.109,0-0.109,0-0.109-0.108H152.588z
		 M167.434,151.328c0-0.109-0.109-0.109-0.109-0.109h-0.109c-0.109,0-0.109,0-0.109,0.109v7.969c0,0.109,0,0.109,0.109,0.109h0.109
		c0.109,0,0.109,0,0.109-0.109l1.42-3.384h0.109c1.309,2.073,3.383,3.493,6.441,3.493c4.91,0,8.623-3.057,8.623-7.205
		c0-3.493-1.527-5.24-6.877-6.986c-4.041-1.311-4.805-2.402-4.805-4.148c0-1.965,1.092-3.057,3.383-3.057
		c2.402,0,4.914,1.527,5.678,6.332c0,0.109,0,0.109,0.109,0.109h0.219c0.109,0,0.109,0,0.109-0.109V137.9
		c0-0.109,0-0.109-0.109-0.109h-0.109c-0.109,0-0.109,0-0.109,0.109l-1.201,2.074h-0.107c-0.873-1.31-2.293-2.402-4.803-2.402
		c-3.713,0-7.861,2.184-7.861,6.879c0,3.166,1.637,5.021,6.877,6.658c3.93,1.311,4.805,2.293,4.805,4.476
		c0,2.184-1.311,3.384-4.041,3.384c-3.602,0-6.439-2.4-7.641-7.75L167.434,151.328z"/>
	<path fill="#F68633" d="M90.58,135.607c6.113,0,10.371-2.292,10.371-6.113c0-3.275-3.275-5.131-7.969-5.459
		c4.475-0.326,7.205-1.965,7.205-4.803c0-3.383-3.494-4.913-9.281-4.913H80.645c-0.109,0-0.109,0-0.109,0.11v0.218
		c0,0.109,0,0.109,0.109,0.109h2.402c0.109,0,0.109,0,0.109,0.109v20.197c0,0.108,0,0.108-0.109,0.108h-2.402
		c-0.109,0-0.109,0-0.109,0.11v0.217c0,0.109,0,0.109,0.109,0.109h10.045H90.58z M89.27,123.817v-8.952c0-0.109,0-0.109,0.109-0.109
		h1.527c2.186,0,2.949,0.874,2.949,4.476c0,3.494-0.656,4.695-3.494,4.695h-0.982L89.27,123.817z M89.27,124.254h0.982
		c3.275,0,4.15,1.092,4.15,5.24c0,4.367-0.875,5.568-3.822,5.568h-1.201c-0.109,0-0.109,0-0.109-0.109v-10.808V124.254z
		 M119.945,127.529c0-0.109,0-0.109-0.107-0.109h-0.109c-0.109,0-0.109,0-0.219,0.219c-1.311,5.24-3.387,7.532-7.207,7.532h-2.072
		c-0.109,0-0.109,0-0.109-0.108v-10.044h0.764c2.184,0,3.275,1.419,4.367,5.132c0.107,0.217,0.107,0.217,0.217,0.217h0.109
		c0.111,0,0.111,0,0.111-0.108v-10.808c0-0.109,0-0.109-0.111-0.109h-0.109c-0.109,0-0.109,0-0.217,0.109
		c-1.092,3.712-2.074,5.131-4.367,5.131h-0.764v-9.716c0-0.109,0-0.109,0.109-0.109h1.746c3.492,0,5.566,1.419,7.098,6.331
		c0.107,0.11,0.107,0.11,0.217,0.11h0.107c0.111,0,0.111,0,0.111-0.11v-6.876h-17.902c-0.109,0-0.109,0-0.109,0.108v0.219
		c0,0.109,0,0.109,0.109,0.109h2.291c0.109,0,0.109,0,0.109,0.109v20.196c0,0.109,0,0.109-0.109,0.109h-2.291
		c-0.109,0-0.109,0-0.109,0.108v0.219c0,0.108,0,0.108,0.109,0.108h18.338v-8.078V127.529z M122.785,127.748
		c0-0.109-0.111-0.109-0.111-0.109h-0.109c-0.107,0-0.107,0-0.107,0.109v7.969c0,0.109,0,0.109,0.107,0.109h0.109
		c0.111,0,0.111,0,0.111-0.109l1.418-3.385h0.109c1.311,2.074,3.385,3.494,6.441,3.494c4.912,0,8.623-3.057,8.623-7.205
		c0-3.493-1.527-5.24-6.877-6.986c-4.039-1.311-4.803-2.402-4.803-4.149c0-1.965,1.092-3.056,3.383-3.056
		c2.402,0,4.912,1.528,5.678,6.332c0,0.108,0,0.108,0.107,0.108h0.221c0.109,0,0.109,0,0.109-0.108v-6.442
		c0-0.108,0-0.108-0.109-0.108h-0.109c-0.111,0-0.111,0-0.111,0.108l-1.199,2.184h-0.109c-0.873-1.31-2.291-2.402-4.803-2.402
		c-3.713,0-7.859,2.184-7.859,6.878c0,3.166,1.637,5.021,6.875,6.659c3.932,1.311,4.805,2.293,4.805,4.477s-1.309,3.383-4.039,3.383
		c-3.602,0-6.441-2.4-7.641-7.75H122.785z M140.141,114.32l-0.109,7.096c0,0.109,0,0.109,0.109,0.109h0.111
		c0.109,0,0.109,0,0.219-0.109c1.527-4.913,3.383-6.55,6.111-6.55h0.221c0.107,0,0.107,0,0.107,0.109v20.196
		c0,0.11,0,0.11-0.107,0.11H144.4c-0.109,0-0.109,0-0.109,0.108v0.218c0,0.109,0,0.109,0.109,0.109h11.135
		c0.107,0,0.107,0,0.107-0.109v-0.218c0-0.108,0-0.108-0.107-0.108h-2.402c-0.109,0-0.109,0-0.109-0.11v-20.196
		c0-0.109,0-0.109,0.109-0.109h0.219c2.838,0,4.693,1.638,6.223,6.55c0.109,0.109,0.109,0.109,0.219,0.109h0.107
		c0.109,0,0.109,0,0.109-0.109v-7.096H140.141z"/>
	<path fill="#F68633" d="M70.057,112.137h3.492l4.914-20.741c0-0.11,0.109-0.11,0.109-0.11h2.184c0.109,0,0.109,0,0.109-0.109
		v-0.218c0-0.109,0-0.109-0.109-0.109h-5.023c-0.109,0-0.109,0-0.109,0.109v0.218c0,0.109,0,0.109,0.109,0.109h2.074
		c0.109,0,0.109,0,0.109,0.11l-3.383,14.301l-3.275-14.301c0-0.11,0-0.11,0.109-0.11h2.182c0.111,0,0.111,0,0.111-0.109v-0.218
		c0-0.109,0-0.109-0.111-0.109H62.633c-0.109,0-0.109,0-0.109,0.109v0.218c0,0.109,0,0.109,0.109,0.109h2.074
		c0.109,0,0.109,0,0.109,0.11l-3.385,14.191l-3.057-14.191c0-0.11,0-0.11,0.109-0.11h2.074c0.109,0,0.109,0,0.109-0.109v-0.218
		c0-0.109,0-0.109-0.109-0.109H49.643c-0.109,0-0.109,0-0.109,0.109v0.218c0,0.109,0,0.109,0.109,0.109h1.965
		c0.109,0,0.109,0,0.109,0.11l5.131,20.741h3.385l4.912-19.978L70.057,112.137z M89.707,112.464c5.566,0,10.371-4.257,10.371-10.916
		c0-6.66-4.805-10.917-10.371-10.917c-5.568,0-10.262,4.367-10.262,10.917C79.445,108.207,84.139,112.464,89.707,112.464z
		 M89.707,91.067c2.838,0,3.711,1.311,3.711,10.48c0,9.169-0.873,10.48-3.711,10.48c-2.84,0-3.604-1.311-3.604-10.48
		C86.104,92.378,86.867,91.067,89.707,91.067z M121.037,112.355c0.982,0,1.857,0,2.621-0.218h0.109l-0.109-0.327v-0.11
		c-0.328,0.11-0.654,0.11-0.984,0.11c-0.873,0-1.309-0.219-1.637-1.419c-0.328-1.31-0.545-4.367-0.873-5.676
		c-0.654-2.62-3.385-3.712-6.986-3.931c4.039-0.327,7.096-1.747,7.096-4.803c0-3.384-3.711-5.022-9.715-5.022h-9.936
		c-0.109,0-0.109,0-0.109,0.109v0.218c0,0.11,0,0.11,0.109,0.11h2.293c0.109,0,0.109,0,0.109,0.108V111.7c0,0.11,0,0.11-0.109,0.11
		h-2.293c-0.109,0-0.109,0-0.109,0.109v0.218c0,0.109,0,0.109,0.109,0.109h11.025c0.109,0,0.109,0,0.109-0.109v-0.218
		c0-0.109,0-0.109-0.109-0.109h-2.291c-0.109,0-0.109,0-0.109-0.11v-10.588h1.855c1.637,0,2.402,0.327,2.619,1.855
		c0.219,1.311,0.219,3.384,0.438,4.913c0.545,3.057,2.947,4.476,6.986,4.476H121.037z M113.832,95.98
		c0,3.82-0.654,4.694-2.838,4.694h-1.855v-9.17c0-0.108,0-0.108,0.109-0.108h1.199C113.068,91.396,113.832,92.159,113.832,95.98z
		 M141.451,103.076c0-0.11,0-0.11-0.109-0.11h-0.107c-0.109,0-0.109,0-0.219,0.219c-1.42,6.223-4.15,8.625-7.643,8.625h-1.311
		c-0.107,0-0.107,0-0.107-0.11V91.504c0-0.108,0-0.108,0.107-0.108h2.293c0.109,0,0.109,0,0.109-0.11v-0.218
		c0-0.109,0-0.109-0.109-0.109H123.33c-0.109,0-0.109,0-0.109,0.109v0.218c0,0.11,0,0.11,0.109,0.11h2.293
		c0.107,0,0.107,0,0.107,0.108V111.7c0,0.11,0,0.11-0.107,0.11h-2.293c-0.109,0-0.109,0-0.109,0.109v0.218
		c0,0.109,0,0.109,0.109,0.109h18.012v-9.17H141.451z M145.055,111.7c0,0.11,0,0.11-0.109,0.11h-2.293c-0.109,0-0.109,0-0.109,0.109
		v0.218c0,0.109,0,0.109,0.109,0.109h10.371c6.332,0,11.354-4.476,11.354-10.698c0-6.332-5.24-10.589-11.9-10.589h-9.934
		c-0.109,0-0.109,0-0.109,0.109v0.218c0,0.11,0,0.11,0.109,0.11h2.293c0.109,0,0.109,0,0.109,0.108V111.7H145.055z M151.277,111.7
		V91.504c0-0.108,0-0.108,0.109-0.108h1.201c3.82,0,5.24,1.528,5.24,10.152c0,8.733-1.203,10.262-4.695,10.262h-1.637
		c-0.109,0-0.109,0-0.109-0.11H151.277z M169.398,90.63c-1.746,0-3.057,1.201-3.057,2.839c0,1.528,1.092,2.729,2.73,2.729
		c1.527,0,2.402-0.764,2.619-2.074l0,0c0.107,0.218,0.107,0.327,0.107,0.655c0,2.62-1.637,5.021-5.02,6.113v0.109l0.109,0.328h0.107
		c3.713-1.092,5.459-3.821,5.459-6.769c0-2.074-0.98-3.821-3.057-3.821V90.63z M174.42,104.386c0-0.109-0.109-0.109-0.109-0.109
		h-0.109c-0.107,0-0.107,0-0.107,0.109v7.969c0,0.109,0,0.109,0.107,0.109h0.109c0.109,0,0.109,0,0.109-0.109l1.42-3.384h0.109
		c1.311,2.075,3.385,3.603,6.441,3.603c4.912,0,8.623-3.057,8.623-7.206c0-3.493-1.527-5.24-6.877-6.986
		c-4.039-1.311-4.803-2.402-4.803-4.149c0-1.965,1.092-3.056,3.383-3.056c2.402,0,4.912,1.528,5.676,6.332
		c0,0.109,0,0.109,0.109,0.109h0.219c0.109,0,0.109,0,0.109-0.109v-6.441c0-0.109,0-0.109-0.109-0.109h-0.109
		c-0.109,0-0.109,0-0.109,0.109l-1.199,2.183h-0.109c-0.873-1.31-2.293-2.401-4.803-2.401c-3.713,0-7.861,2.183-7.861,6.877
		c0,3.166,1.639,5.022,6.877,6.659c3.93,1.311,4.805,2.293,4.805,4.476c0,2.184-1.311,3.384-4.041,3.384
		c-3.6,0-6.441-2.401-7.641-7.751L174.42,104.386z"/>
	<path fill="#383535" d="M99.859,182.986c3.275,0,4.148-4.039,4.148-8.188c0-0.109,0-0.109-0.109-0.109h-0.219
		c-0.109,0-0.109,0-0.109,0.109c-0.109,2.401-0.764,3.166-3.492,3.166c-2.076,0-4.367-0.437-6.879-0.437
		c-1.639,0-2.947,0.327-3.492,1.2c0.326-1.419,1.42-2.51,4.039-3.93c4.365-2.511,9.934-4.366,9.934-8.624
		c0-3.821-4.039-5.24-8.623-5.24c-4.15,0-6.115,2.183-6.115,4.804c0,1.965,1.092,3.166,2.619,3.166c1.422,0,2.402-0.982,2.402-2.402
		c0-0.654-0.217-0.873-1.092-1.31l-0.98-0.327c-0.764-0.328-0.984-0.655-0.984-1.311c0-1.092,1.201-2.074,3.713-2.074
		c1.746,0,2.402,0.982,2.402,4.912c0,3.604-0.875,5.677-3.93,7.97c-3.275,2.511-3.932,4.038-3.932,5.896
		c0,0.982,0.328,1.855,0.547,2.293h2.729l0.109-0.11c-1.418-0.327-2.621-1.31-2.621-2.511c0-0.982,0.547-1.529,1.529-1.529
		c2.619,0,4.805,4.477,8.734,4.477L99.859,182.986z M113.941,182.986c4.912,0,8.516-4.803,8.516-10.917
		c0-6.113-3.604-10.917-8.516-10.917c-5.021,0-8.514,4.804-8.514,10.917c0,6.114,3.6,10.917,8.404,10.917H113.941z M114.051,161.59
		c1.748,0,2.184,1.31,2.184,10.479c0,9.171-0.545,10.481-2.184,10.481c-1.637,0-2.182-1.311-2.182-10.481
		C111.869,162.899,112.303,161.59,114.051,161.59z M135.885,182.768c0.107,0,0.107,0,0.107-0.108v-0.219
		c0-0.108,0-0.108-0.107-0.108h-2.949c-0.109,0-0.109,0-0.109-0.109V161.48c0-0.109,0-0.109-0.107-0.109h-2.512
		c-0.107,0-0.107,0-0.107,0.109c-1.203,1.965-3.059,4.039-6.66,4.476l-0.109,0.11l0.109,0.326h0.109
		c1.09-0.108,2.4-0.545,3.385-0.982v16.812c0,0.109,0,0.109-0.109,0.109h-2.84c-0.109,0-0.109,0-0.109,0.108v0.219
		c0,0.108,0,0.108,0.109,0.108H135.885z M141.998,183.096c4.475,0,9.607-2.184,9.607-6.769c0-4.258-3.932-6.005-9.062-6.005
		c-2.291,0-3.82,0.875-4.693,2.184l1.201-5.785c0.98,0.437,2.4,0.545,4.146,0.545c4.039,0,6.988-1.965,7.752-5.895v-0.109h-0.326
		h-0.111c-0.545,2.512-1.855,3.712-3.709,3.712c-1.748,0-3.275-1.2-3.713-3.493l-3.604,0.109l-2.291,12.008l0.436,0.109
		c0.873-1.965,2.4-2.838,4.477-2.838c2.184,0,2.947,0.982,2.947,5.566c0,4.695-0.982,6.332-3.057,6.332
		c-2.621,0-3.713-1.201-3.713-2.292c0-0.655,0.328-0.982,1.201-1.31l0.875-0.328c0.873-0.327,1.199-0.654,1.199-1.42
		c0-1.309-0.873-2.291-2.184-2.291c-1.746,0-2.836,1.092-2.836,3.273c0,3.166,2.182,5.022,5.566,5.022L141.998,183.096z"/>
	<polygon fill="#383535" points="155.643,59.846 155.643,65.414 149.857,65.414 149.857,66.396 155.643,66.396 155.643,72.072 
		156.734,72.072 156.734,66.396 162.521,66.396 162.521,65.414 156.734,65.414 156.734,59.846 	"/>
	<path fill="#383535" d="M129.115,87.029c-3.385,0-5.566-1.965-5.566-4.804v-7.751h2.945v7.751c0,1.638,1.42,2.292,2.621,2.292
		c1.639,0,2.621-0.873,2.621-2.292v-7.751h2.947v7.751C134.684,85.172,132.5,87.029,129.115,87.029z"/>
	<path fill="#383535" d="M116.016,87.029c-2.51,0-4.693-0.765-6.658-2.402l-0.109-0.11l1.637-2.074l0.109,0.109
		c1.199,0.874,2.729,1.965,5.021,1.965c1.201,0,2.51-0.436,2.51-1.528c0-0.982-0.982-1.201-2.836-1.419
		c-2.293-0.109-5.787-0.327-5.787-3.603c0-2.947,2.621-3.93,5.131-3.93c2.402,0,4.586,0.874,5.676,1.638l0.109,0.109l-1.744,2.075
		l-0.109-0.109c-0.439-0.328-1.857-1.2-4.041-1.2c-0.982,0-2.074,0.327-2.074,1.31c0,0.873,1.311,0.982,2.729,1.091h0.221
		c2.182,0.109,5.676,0.328,5.676,3.821c0,2.729-1.965,4.258-5.568,4.258H116.016z"/>
	<polygon fill="#383535" points="151.605,74.474 151.605,86.701 162.303,86.701 162.303,84.19 154.553,84.19 154.553,81.57 
		158.918,81.57 158.918,79.059 154.553,79.059 154.553,77.094 161.867,77.094 161.867,74.474 	"/>
	<polygon fill="#383535" points="104.225,86.701 107.172,86.701 107.172,74.474 104.225,74.474 	"/>
	<polygon fill="#383535" points="91.127,74.474 91.127,86.701 101.824,86.701 101.824,84.19 94.072,84.19 94.072,81.57 
		98.439,81.57 98.439,79.059 94.072,79.059 94.072,77.094 101.387,77.094 101.387,74.474 	"/>
	<polygon fill="#383535" points="79.445,74.474 79.445,86.701 89.379,86.701 89.379,84.19 82.393,84.19 82.393,74.474 	"/>
	<path fill="#383535" d="M146.803,81.788c1.527-0.764,2.291-1.965,2.291-3.384c0-0.982-0.328-1.855-0.982-2.62
		c-0.875-0.873-2.074-1.31-3.711-1.31h-6.77v12.227h2.947v-4.367h3.275l2.402,4.367h3.383L146.803,81.788z M144.727,79.823h-4.148
		v-2.838h3.93c0.438,0,0.984,0.109,1.311,0.437c0.219,0.219,0.328,0.546,0.328,0.982c0,0.764-0.654,1.419-1.529,1.419H144.727z"/>
	<polygon fill="#383535" points="142.326,59.846 142.326,72.072 152.26,72.072 152.26,69.452 145.273,69.452 145.273,59.846 	"/>
	<polygon fill="#383535" points="129.66,59.846 129.66,72.072 140.361,72.072 140.361,69.452 132.609,69.452 132.609,66.942 
		136.977,66.942 136.977,64.43 132.609,64.43 132.609,62.465 139.924,62.465 139.924,59.846 	"/>
	<polygon fill="#383535" points="125.295,59.846 121.691,68.361 117.98,59.846 114.705,59.846 120.383,72.072 122.895,72.072 
		128.57,59.846 	"/>
	<polygon fill="#383535" points="77.699,59.846 77.699,62.465 82.064,62.465 82.064,72.072 85.012,72.072 85.012,62.465 
		89.27,62.465 89.27,59.846 	"/>
	<path fill="#383535" d="M109.139,59.846l-5.678,12.226h3.166l1.092-2.51h5.24l1.092,2.51h3.275l-5.678-12.226h-2.4H109.139z
		 M110.34,63.449l1.637,3.711h-3.273L110.34,63.449z"/>
	<path fill="#383535" d="M99.859,67.16c1.527-0.655,2.293-1.965,2.293-3.384c0-0.982-0.328-1.856-0.984-2.62
		c-0.873-0.874-2.072-1.31-3.711-1.31h-6.768v12.226h2.947v-4.367h3.275l2.4,4.367h3.385L99.859,67.16z M97.785,65.085h-4.148
		v-2.838h3.93c0.436,0,0.982,0.109,1.311,0.436c0.219,0.219,0.328,0.546,0.328,0.983c0,0.764-0.656,1.419-1.529,1.419H97.785z"/>
	<path fill="#383535" d="M176.168,36.156c1.527,0.982,2.51,1.638,3.057,2.184c0.545,0.545,0.764,0.982,0.654,1.201
		c-0.219,0.327-0.654,0.327-1.309,0c-0.766-0.327-1.857-0.874-3.387-1.856l-2.729,1.092l0.219,0.109
		c0.219,0.11,0.328,0.219,0.436,0.437c0.109,0.109,0.109,0.218,0,0.437c-0.107,0.108-0.217,0.218-0.326,0.218
		s-0.328-0.11-0.545-0.218l-0.764-0.546l-1.748,0.654l0.217,0.11c0.219,0.109,0.328,0.327,0.438,0.437
		c0.109,0.109,0.109,0.328,0,0.437c-0.109,0.109-0.219,0.218-0.326,0.218c-0.111,0-0.328-0.109-0.547-0.218l-0.764-0.546
		c-0.766,0.437-1.42,0.655-1.965,0.655c-0.547,0-0.982-0.109-1.42-0.328l-0.219-0.109c1.639-0.982,2.947-1.965,4.148-2.838
		c1.092-0.873,1.746-1.419,1.965-1.747c0.221-0.327-0.219-0.982-1.418-1.856c-0.982-0.655-1.748-1.31-2.402-1.747
		c-0.219,0-0.545,0.109-0.982,0.327c-0.438,0.109-1.092,0.437-1.857,0.765c-0.217-0.109-0.436-0.109-0.654-0.218
		c-0.217-0.109-0.436-0.218-0.654-0.218c0.438-0.328,0.873-0.655,1.309-0.982c0.439-0.328,0.766-0.655,1.094-0.982
		c-0.109-0.11-0.219-0.11-0.219-0.219c-0.109-0.109-0.219-0.218-0.219-0.327c0.109,0,0.219,0,0.328,0.109
		c0.109,0,0.219,0.109,0.436,0.109c0.219-0.436,0.328-0.873,0.438-1.418c0.109-0.546,0.219-0.983,0.328-1.529
		c0.326,0.218,0.654,0.545,0.98,0.874l0,0c0,0.873,0,1.528,0.109,1.965c0,0.437,0.109,0.764,0.219,0.982
		c0.656,0.327,1.529,0.764,2.512,1.31c1.309,0.765,2.184,0.982,2.402,0.546c0.217-0.328,0.436-1.201,0.764-2.511
		c0.328-1.31,0.545-3.056,0.764-4.912l0.219,0.109c0.436,0.327,0.764,0.654,0.98,1.201c0.221,0.437,0.221,1.2,0.221,2.074
		l0.764,0.545c0.219,0.109,0.328,0.328,0.438,0.437c0.109,0.109,0.109,0.218,0,0.437c-0.109,0.109-0.219,0.219-0.328,0.219
		s-0.328-0.11-0.547-0.219l-0.217-0.109l0.109,1.856l0.764,0.546c0.219,0.109,0.328,0.218,0.436,0.437
		c0.109,0.11,0.109,0.219,0,0.437c-0.107,0.109-0.217,0.218-0.326,0.218s-0.328-0.109-0.547-0.218l-0.219-0.11l0.219,2.948
		L176.168,36.156z"/>
	<path fill="#383535" d="M118.635,21.964c0-0.327,0.219-0.546,0.547-0.546l0,0c0.328,0,0.547,0.219,0.547,0.546l0,0
		c0,0.328-0.219,0.546-0.547,0.546l0,0l0,0l0,0C118.854,22.511,118.635,22.292,118.635,21.964z M122.24,22.511
		c-0.33,0-0.549-0.218-0.549-0.546l0,0c0-0.327,0.219-0.546,0.549-0.546l0,0c0.324,0,0.545,0.328,0.545,0.546l0,0
		C122.785,22.292,122.457,22.511,122.24,22.511L122.24,22.511L122.24,22.511z M115.578,22.074c0-0.327,0.221-0.545,0.545-0.545l0,0
		c0.33,0,0.549,0.218,0.549,0.545l0,0c0,0.327-0.219,0.546-0.549,0.546l0,0l0,0l0,0C115.799,22.62,115.578,22.401,115.578,22.074z
		 M125.186,22.729c-0.326,0-0.547-0.328-0.547-0.655l0,0c0-0.327,0.328-0.545,0.547-0.545l0,0c0.328,0,0.545,0.327,0.545,0.545l0,0
		c0,0.327-0.217,0.546-0.545,0.546l0,0l0,0V22.729z M112.523,22.292c0-0.328,0.217-0.546,0.545-0.655l0,0
		c0.328,0,0.545,0.218,0.654,0.545l0,0c0,0.328-0.217,0.546-0.545,0.655l0,0l0,0l0,0c-0.328,0-0.545-0.218-0.545-0.545H112.523z
		 M128.133,22.948c-0.326,0-0.545-0.328-0.545-0.655l0,0c0-0.328,0.326-0.546,0.654-0.546l0,0c0.328,0,0.547,0.327,0.547,0.654l0,0
		c0,0.328-0.219,0.547-0.547,0.547l0,0C128.242,22.948,128.242,22.948,128.133,22.948z M109.467,22.62
		c0-0.327,0.217-0.546,0.545-0.655l0,0c0.328,0,0.547,0.218,0.654,0.546l0,0c0,0.327-0.219,0.545-0.545,0.654l0,0c0,0,0,0-0.109,0
		l0,0C109.684,23.165,109.467,22.948,109.467,22.62z M131.189,23.275c-0.326,0-0.545-0.327-0.545-0.655l0,0
		c0-0.327,0.328-0.546,0.654-0.546l0,0c0.328,0,0.547,0.327,0.547,0.655l0,0c0,0.328-0.328,0.546-0.547,0.546l0,0
		C131.299,23.275,131.299,23.275,131.189,23.275z M106.518,23.056c0-0.328,0.219-0.655,0.438-0.655l0,0
		c0.328,0,0.545,0.219,0.654,0.437l0,0c0,0.327-0.219,0.546-0.438,0.655l0,0c0,0,0,0-0.107,0l0,0
		C106.736,23.493,106.518,23.275,106.518,23.056z M134.246,23.711c-0.326,0-0.545-0.328-0.436-0.655l0,0
		c0-0.328,0.328-0.545,0.654-0.437l0,0c0.328,0,0.545,0.328,0.438,0.655l0,0c0,0.327-0.328,0.437-0.547,0.437l0,0
		C134.355,23.711,134.355,23.711,134.246,23.711z M103.57,23.493c0-0.328,0.219-0.655,0.438-0.655l0,0
		c0.326,0,0.654,0.11,0.654,0.437l0,0c0.111,0.327-0.109,0.654-0.438,0.654l0,0h-0.107l0,0
		C103.789,23.929,103.57,23.711,103.57,23.493z M137.195,24.147c-0.33-0.109-0.547-0.327-0.438-0.654l0,0
		c0-0.328,0.328-0.545,0.654-0.437l0,0c0.328,0.109,0.547,0.328,0.438,0.655l0,0c-0.109,0.327-0.328,0.436-0.545,0.436l0,0H137.195z
		 M100.514,24.039c-0.109-0.327,0.109-0.655,0.438-0.655l0,0c0.326-0.109,0.656,0.109,0.656,0.437l0,0
		c0.107,0.327-0.109,0.655-0.439,0.655l0,0h-0.109l0,0C100.842,24.476,100.514,24.257,100.514,24.039z M140.141,24.694
		c-0.326-0.109-0.545-0.328-0.434-0.655l0,0c0.107-0.327,0.324-0.545,0.654-0.437l0,0c0.326,0.109,0.545,0.327,0.436,0.655l0,0
		c-0.109,0.218-0.326,0.437-0.545,0.437l0,0H140.141z M97.566,24.584c-0.109-0.327,0.109-0.655,0.436-0.655l0,0
		c0.33-0.109,0.654,0.109,0.654,0.437l0,0c0.111,0.328-0.107,0.655-0.434,0.655l0,0h-0.111l0,0
		C97.893,25.021,97.566,24.803,97.566,24.584z M143.09,25.349L143.09,25.349c-0.328-0.109-0.438-0.327-0.438-0.655l0,0
		c0.109-0.328,0.328-0.546,0.654-0.437l0,0l0,0l0,0c0.33,0.109,0.547,0.327,0.438,0.655l0,0c-0.107,0.217-0.328,0.436-0.547,0.436
		l0,0H143.09z M94.619,25.349c-0.109-0.327,0.107-0.655,0.438-0.655l0,0c0.326-0.109,0.654,0.109,0.654,0.436l0,0
		c0.109,0.328-0.109,0.655-0.438,0.655l0,0h-0.107l0,0C94.947,25.785,94.727,25.567,94.619,25.349z M146.037,26.113L146.037,26.113
		c-0.328-0.109-0.438-0.437-0.438-0.655l0,0c0.109-0.328,0.438-0.437,0.656-0.437l0,0c0.326,0.108,0.436,0.437,0.436,0.655l0,0
		c-0.109,0.219-0.328,0.437-0.545,0.437l0,0C146.037,26.113,146.037,26.113,146.037,26.113z M91.781,26.222
		c-0.109-0.327,0.109-0.655,0.326-0.764l0,0c0.328-0.109,0.656,0.109,0.764,0.437l0,0c0.111,0.327-0.107,0.654-0.326,0.654l0,0
		c-0.109,0-0.109,0-0.219,0l0,0c-0.219,0-0.436-0.218-0.545-0.436V26.222z M148.984,26.986c-0.328-0.109-0.438-0.437-0.328-0.764
		l0,0c0.109-0.327,0.438-0.437,0.766-0.327l0,0c0.326,0.109,0.436,0.436,0.326,0.764l0,0c-0.109,0.218-0.326,0.436-0.545,0.436l0,0
		c-0.109,0-0.109,0-0.219,0V26.986z M88.941,27.205c-0.107-0.327,0.109-0.655,0.328-0.764l0,0l0,0l0,0
		c0.328-0.109,0.654,0.109,0.764,0.327l0,0c0.109,0.328-0.109,0.655-0.326,0.764l0,0c-0.109,0-0.109,0-0.219,0l0,0
		c-0.219,0-0.438-0.109-0.547-0.437V27.205z M151.932,27.969c-0.326-0.109-0.436-0.437-0.326-0.764l0,0
		c0.107-0.327,0.436-0.437,0.764-0.327l0,0c0.326,0.109,0.436,0.437,0.326,0.764l0,0c-0.107,0.218-0.326,0.437-0.545,0.437l0,0
		c-0.109,0-0.109,0-0.219,0V27.969z M86.104,28.187c-0.109-0.327,0-0.655,0.328-0.764l0,0c0.326-0.109,0.654,0,0.764,0.328l0,0
		c0.111,0.328,0,0.655-0.328,0.764l0,0c-0.109,0-0.109,0-0.217,0l0,0C86.432,28.514,86.213,28.405,86.104,28.187z M154.771,28.951
		c-0.33-0.109-0.439-0.437-0.33-0.764l0,0c0.111-0.327,0.438-0.437,0.766-0.327l0,0c0.328,0.109,0.436,0.436,0.328,0.764l0,0
		c-0.109,0.218-0.328,0.327-0.547,0.327l0,0C154.879,28.951,154.879,28.951,154.771,28.951z M83.375,29.279
		c-0.109-0.328,0-0.655,0.326-0.765l0,0c0.33-0.109,0.656,0,0.764,0.328l0,0c0.111,0.327,0,0.654-0.326,0.764l0,0
		c-0.107,0-0.107,0-0.219,0l0,0C83.701,29.606,83.484,29.497,83.375,29.279z M157.607,30.043c-0.326-0.109-0.434-0.437-0.326-0.764
		l0,0c0.109-0.328,0.436-0.437,0.764-0.328l0,0c0.328,0.109,0.438,0.437,0.328,0.764l0,0c-0.111,0.218-0.328,0.328-0.545,0.328l0,0
		C157.717,30.043,157.717,30.043,157.607,30.043z M80.535,30.48c-0.109-0.328,0-0.655,0.33-0.765l0,0
		c0.324-0.109,0.654,0,0.764,0.328l0,0c0.109,0.328,0,0.655-0.328,0.764l0,0c-0.111,0-0.111,0-0.219,0l0,0
		C80.865,30.807,80.645,30.698,80.535,30.48z M160.338,31.244c-0.328-0.11-0.438-0.437-0.328-0.764l0,0
		c0.109-0.328,0.438-0.437,0.764-0.328l0,0c0.33,0.11,0.438,0.437,0.33,0.764l0,0c-0.111,0.218-0.33,0.328-0.547,0.328l0,0
		C160.447,31.244,160.447,31.244,160.338,31.244z M77.807,31.681c-0.107-0.328,0-0.655,0.328-0.765l0,0
		c0.328-0.109,0.656,0,0.764,0.218l0,0c0.109,0.328,0,0.655-0.326,0.764l0,0c-0.109,0-0.109,0.11-0.219,0.11l0,0
		C78.135,32.008,77.916,31.898,77.807,31.681z M75.078,32.991c-0.109-0.328,0-0.655,0.219-0.764l0,0
		c0.326-0.109,0.654,0,0.764,0.218l0,0c0.109,0.218,0,0.655-0.219,0.764l0,0c-0.109,0-0.219,0.109-0.219,0.109l0,0
		C75.404,33.318,75.188,33.209,75.078,32.991z M72.457,34.41c-0.107-0.328-0.107-0.655,0.219-0.764l0,0
		c0.328-0.11,0.654-0.11,0.764,0.217l0,0c0.109,0.328,0.109,0.655-0.217,0.765l0,0c-0.109,0-0.219,0.109-0.328,0.109l0,0
		C72.676,34.737,72.457,34.628,72.457,34.41z M69.84,35.938c-0.221-0.327-0.111-0.655,0.217-0.764l0,0
		c0.328-0.218,0.654-0.109,0.764,0.219l0,0c0.109,0.327,0.109,0.655-0.217,0.764l0,0c-0.109,0.109-0.219,0.109-0.33,0.109l0,0
		C70.057,36.265,69.947,36.156,69.84,35.938z M67.328,37.576c-0.219-0.328-0.109-0.655,0.217-0.764l0,0
		c0.328-0.218,0.656-0.109,0.764,0.218l0,0c0.219,0.328,0.111,0.655-0.217,0.765l0,0c-0.109,0.109-0.219,0.109-0.328,0.109l0,0
		c-0.219,0-0.326-0.109-0.436-0.218V37.576z M64.816,39.213c-0.219-0.218-0.109-0.655,0.109-0.765l0,0
		c0.219-0.219,0.654-0.109,0.764,0.109l0,0c0.219,0.218,0.109,0.655-0.109,0.764l0,0c-0.109,0.109-0.219,0.109-0.326,0.109l0,0
		C65.035,39.431,64.926,39.322,64.816,39.213z M62.414,40.96c-0.219-0.218-0.109-0.655,0.109-0.764l0,0
		c0.219-0.218,0.654-0.109,0.766,0.109l0,0c0.217,0.218,0.109,0.655-0.111,0.764l0,0c-0.109,0.109-0.219,0.109-0.326,0.109l0,0
		C62.633,41.178,62.523,41.069,62.414,40.96z M60.014,42.815c-0.221-0.219-0.111-0.655,0.109-0.764l0,0
		c0.217-0.218,0.654-0.109,0.764,0.109l0,0c0.219,0.219,0.109,0.655-0.109,0.764l0,0c-0.109,0.109-0.219,0.109-0.328,0.109l0,0
		C60.232,43.034,60.123,42.925,60.014,42.815z M180.971,43.689L180.971,43.689c-0.219-0.218-0.328-0.546-0.109-0.764l0,0
		c0.219-0.218,0.545-0.328,0.764-0.109l0,0c0.219,0.218,0.328,0.546,0.109,0.765l0,0c-0.109,0.109-0.328,0.218-0.438,0.218l0,0
		C181.189,43.798,181.08,43.798,180.971,43.689z M57.611,44.671c-0.219-0.218-0.219-0.655,0.109-0.764l0,0
		c0.217-0.218,0.545-0.218,0.764,0.109l0,0c0.219,0.218,0.219,0.655-0.109,0.765l0,0c-0.109,0.109-0.219,0.109-0.326,0.109l0,0
		C57.938,44.89,57.721,44.781,57.611,44.671z M183.264,45.545c-0.219-0.218-0.219-0.546-0.109-0.764l0,0
		c0.219-0.218,0.545-0.328,0.764-0.109l0,0l0,0l0,0c0.219,0.218,0.328,0.546,0.109,0.764l0,0c-0.109,0.109-0.328,0.218-0.438,0.218
		l0,0C183.48,45.654,183.373,45.654,183.264,45.545z M55.318,46.636c-0.219-0.218-0.219-0.545,0-0.764l0,0
		c0.221-0.218,0.654-0.218,0.764,0.109l0,0c0.221,0.219,0.221,0.546,0,0.765l0,0c-0.109,0.108-0.219,0.108-0.326,0.108l0,0
		C55.646,46.854,55.428,46.746,55.318,46.636z M185.555,47.51L185.555,47.51c-0.219-0.218-0.219-0.546,0-0.764l0,0
		c0.221-0.219,0.545-0.219,0.766,0l0,0c0.219,0.217,0.219,0.545,0,0.764l0,0c-0.109,0.109-0.328,0.219-0.438,0.219l0,0
		c-0.107,0-0.217,0-0.328-0.11V47.51z M53.137,48.711c-0.219-0.219-0.219-0.546,0-0.764l0,0l0,0l0,0
		c0.217-0.218,0.545-0.218,0.871,0l0,0c0.219,0.218,0.219,0.545,0,0.764l0,0c-0.107,0.109-0.217,0.109-0.436,0.109l0,0
		c-0.109,0-0.328-0.109-0.436-0.219V48.711z M187.738,49.583L187.738,49.583c-0.217-0.218-0.217-0.545,0-0.764l0,0
		c0.219-0.219,0.547-0.219,0.764,0l0,0c0.219,0.218,0.219,0.545,0,0.764l0,0c-0.109,0.11-0.217,0.219-0.436,0.219l0,0
		c-0.109,0-0.219,0-0.438-0.109L187.738,49.583z M50.953,50.785c-0.219-0.218-0.219-0.546,0-0.764l0,0
		c0.217-0.218,0.545-0.218,0.764,0l0,0c0.217,0.218,0.217,0.546,0,0.764l0,0c-0.109,0.109-0.219,0.218-0.438,0.218l0,0
		c-0.109,0-0.326-0.109-0.438-0.218H50.953z M189.922,51.658c-0.217-0.218-0.217-0.545,0-0.764l0,0c0.219-0.218,0.547-0.218,0.764,0
		l0,0c0.219,0.219,0.219,0.546,0,0.764l0,0c-0.109,0.109-0.217,0.218-0.436,0.218l0,0c-0.109,0-0.328-0.109-0.438-0.218H189.922z
		 M48.877,52.968c-0.219-0.218-0.219-0.545,0-0.764l0,0c0.221-0.219,0.545-0.219,0.766,0l0,0c0.219,0.218,0.219,0.545,0,0.764l0,0
		c-0.109,0.11-0.221,0.219-0.438,0.219l0,0c-0.107,0-0.328,0-0.438-0.109L48.877,52.968z M191.996,53.842
		c-0.219-0.219-0.219-0.546,0-0.764l0,0c0.219-0.219,0.545-0.219,0.766,0l0,0c0.217,0.218,0.217,0.545,0,0.764l0,0
		c-0.111,0.108-0.221,0.108-0.438,0.108l0,0c-0.109,0-0.328-0.108-0.438-0.218L191.996,53.842z M46.805,55.151
		c-0.219-0.218-0.219-0.546-0.109-0.764l0,0c0.217-0.218,0.545-0.218,0.764,0l0,0c0.219,0.218,0.219,0.546,0,0.764l0,0
		c-0.109,0.109-0.219,0.218-0.438,0.218l0,0c-0.109,0-0.326,0-0.326-0.109L46.805,55.151z M193.961,56.025
		c-0.219-0.218-0.219-0.545,0.109-0.764l0,0c0.219-0.218,0.547-0.218,0.764,0.109l0,0c0.219,0.218,0.219,0.546-0.107,0.764l0,0
		c-0.109,0.109-0.219,0.109-0.328,0.109l0,0C194.289,56.243,194.07,56.134,193.961,56.025z M44.838,57.444
		c-0.217-0.219-0.326-0.546-0.109-0.764l0,0c0.219-0.218,0.547-0.328,0.764-0.109l0,0c0.221,0.218,0.33,0.545,0.109,0.764l0,0
		c-0.109,0.11-0.326,0.219-0.434,0.219l0,0C45.057,57.553,44.947,57.553,44.838,57.444z M195.926,58.317
		c-0.219-0.218-0.219-0.545,0.111-0.764l0,0c0.217-0.219,0.545-0.219,0.764,0.109l0,0c0.217,0.218,0.217,0.654-0.109,0.764l0,0
		c-0.109,0.109-0.221,0.109-0.33,0.109l0,0C196.145,58.536,196.037,58.427,195.926,58.317z M42.982,59.736
		c-0.217-0.218-0.326-0.545-0.109-0.764l0,0c0.219-0.218,0.547-0.327,0.764-0.109l0,0c0.221,0.219,0.328,0.546,0.109,0.765l0,0
		c-0.109,0.109-0.217,0.219-0.436,0.219l0,0C43.201,59.846,43.092,59.846,42.982,59.736z M197.781,60.61L197.781,60.61
		c-0.217-0.218-0.107-0.655,0.111-0.764l0,0c0.217-0.219,0.654-0.11,0.764,0.108l0,0c0.217,0.219,0.107,0.655-0.109,0.764l0,0
		c-0.109,0.11-0.219,0.11-0.328,0.11l0,0C198,60.829,197.893,60.719,197.781,60.61z M41.127,62.138
		c-0.219-0.218-0.328-0.546-0.109-0.764l0,0c0.219-0.218,0.545-0.327,0.764-0.109l0,0c0.221,0.218,0.328,0.546,0.111,0.765l0,0
		c-0.111,0.109-0.33,0.218-0.438,0.218l0,0C41.346,62.248,41.236,62.248,41.127,62.138z M199.637,63.012
		c-0.217-0.218-0.109-0.655,0.109-0.764l0,0c0.221-0.218,0.656-0.109,0.766,0.109l0,0c0.219,0.219,0.109,0.655-0.109,0.764l0,0
		c-0.109,0.109-0.219,0.109-0.326,0.109l0,0C199.857,63.229,199.746,63.121,199.637,63.012z M39.381,64.649
		c-0.219-0.219-0.328-0.546-0.109-0.764l0,0c0.219-0.218,0.545-0.327,0.764-0.109l0,0c0.219,0.218,0.328,0.545,0.109,0.764l0,0
		c-0.109,0.109-0.328,0.218-0.438,0.218l0,0C39.6,64.758,39.49,64.758,39.381,64.649z M201.275,65.522
		c-0.219-0.327-0.109-0.655,0.109-0.764l0,0c0.219-0.218,0.654-0.109,0.764,0.218l0,0c0.219,0.219,0.109,0.655-0.109,0.764l0,0
		c-0.109,0.109-0.217,0.109-0.328,0.109l0,0c-0.217,0-0.326-0.109-0.436-0.218V65.522z M37.633,67.16
		c-0.217-0.218-0.326-0.546-0.217-0.764l0,0c0.217-0.218,0.545-0.328,0.764-0.218l0,0c0.217,0.218,0.326,0.545,0.217,0.764l0,0
		c-0.107,0.218-0.324,0.218-0.436,0.218l0,0c-0.109,0-0.219,0-0.328-0.11V67.16z M202.912,68.033
		c-0.219-0.218-0.109-0.655,0.221-0.764l0,0c0.326-0.219,0.654-0.109,0.764,0.218l0,0c0.217,0.328,0.109,0.655-0.219,0.764l0,0
		c-0.111,0.109-0.219,0.109-0.328,0.109l0,0C203.133,68.361,203.021,68.251,202.912,68.033z M36.105,69.78
		c-0.328-0.218-0.328-0.546-0.219-0.765l0,0c0.109-0.328,0.547-0.328,0.764-0.219l0,0c0.219,0.11,0.328,0.546,0.219,0.765l0,0
		c-0.109,0.218-0.328,0.327-0.436,0.327l0,0C36.324,69.889,36.215,69.889,36.105,69.78z M204.441,70.653
		c-0.219-0.328-0.109-0.655,0.219-0.764l0,0c0.326-0.109,0.654-0.109,0.764,0.218l0,0c0.219,0.327,0.109,0.655-0.219,0.764l0,0
		c-0.109,0-0.219,0.109-0.328,0.109l0,0C204.66,70.981,204.441,70.872,204.441,70.653z M34.576,72.399
		c-0.326-0.108-0.326-0.545-0.219-0.764l0,0c0.109-0.328,0.547-0.328,0.764-0.219l0,0c0.33,0.11,0.33,0.546,0.221,0.765l0,0
		c-0.111,0.217-0.328,0.327-0.545,0.327l0,0c-0.111,0-0.221,0-0.33-0.11H34.576z M205.969,73.273c-0.107-0.328,0-0.655,0.219-0.764
		l0,0c0.328-0.11,0.654,0,0.766,0.218l0,0c0.109,0.327,0,0.655-0.221,0.764l0,0c-0.107,0-0.217,0.109-0.324,0.109l0,0
		c-0.221,0-0.439-0.109-0.547-0.327H205.969z M33.158,75.129c-0.219-0.109-0.438-0.546-0.219-0.765l0,0
		c0.109-0.328,0.436-0.436,0.764-0.218l0,0c0.328,0.109,0.328,0.436,0.219,0.764l0,0c-0.109,0.218-0.328,0.327-0.547,0.327l0,0
		C33.268,75.238,33.158,75.238,33.158,75.129z M207.389,76.002c-0.109-0.328,0-0.655,0.219-0.764l0,0
		c0.328-0.109,0.654,0,0.764,0.218l0,0c0.109,0.327,0,0.655-0.219,0.764l0,0c-0.109,0-0.217,0.109-0.217,0.109l0,0
		C207.717,76.33,207.498,76.221,207.389,76.002z M31.848,77.858c-0.326-0.109-0.438-0.437-0.217-0.764l0,0
		c0.107-0.328,0.436-0.437,0.764-0.218l0,0c0.326,0.109,0.436,0.437,0.217,0.764l0,0c-0.107,0.218-0.326,0.327-0.545,0.327l0,0
		C31.955,77.967,31.848,77.967,31.848,77.858z M208.699,78.731c-0.109-0.328,0-0.655,0.328-0.764l0,0
		c0.326-0.109,0.654,0,0.764,0.218l0,0c0.107,0.328,0,0.655-0.328,0.764l0,0c-0.109,0-0.219,0.109-0.219,0.109l0,0
		C209.027,79.059,208.809,78.95,208.699,78.731z M30.537,80.697c-0.326-0.109-0.436-0.437-0.326-0.765l0,0
		c0.109-0.327,0.436-0.436,0.764-0.327l0,0c0.326,0.109,0.436,0.437,0.326,0.764l0,0c-0.109,0.218-0.326,0.328-0.545,0.328l0,0
		C30.646,80.697,30.537,80.697,30.537,80.697z M209.898,81.461c-0.107-0.328,0-0.655,0.33-0.764l0,0
		c0.326-0.109,0.654,0,0.764,0.328l0,0c0.109,0.327,0,0.655-0.33,0.764l0,0c-0.107,0-0.107,0-0.217,0l0,0
		C210.229,81.788,210.008,81.679,209.898,81.461z M29.338,83.426c-0.328-0.109-0.438-0.437-0.328-0.764l0,0
		c0.109-0.328,0.436-0.437,0.764-0.328l0,0c0.328,0.109,0.438,0.437,0.328,0.764l0,0c-0.109,0.218-0.328,0.328-0.547,0.328l0,0
		C29.445,83.426,29.445,83.426,29.338,83.426z M210.992,84.19c-0.109-0.327,0-0.655,0.326-0.764l0,0
		c0.328-0.109,0.656,0,0.764,0.328l0,0c0.111,0.328,0,0.655-0.326,0.764l0,0c-0.109,0-0.109,0-0.219,0l0,0
		C211.318,84.517,211.102,84.408,210.992,84.19z M28.246,86.264c-0.328-0.109-0.438-0.436-0.328-0.764l0,0
		c0.107-0.327,0.438-0.436,0.764-0.327l0,0c0.328,0.11,0.438,0.437,0.328,0.764l0,0c-0.109,0.218-0.328,0.327-0.545,0.327l0,0
		C28.355,86.264,28.355,86.264,28.246,86.264z M212.082,87.029c-0.107-0.328,0-0.655,0.328-0.765l0,0
		c0.328-0.109,0.654,0,0.764,0.328l0,0c0.109,0.327,0,0.655-0.326,0.764l0,0c-0.109,0-0.109,0-0.219,0l0,0
		C212.41,87.356,212.193,87.247,212.082,87.029z M27.262,89.103c-0.326-0.109-0.436-0.437-0.326-0.764l0,0
		c0.109-0.327,0.436-0.437,0.766-0.327l0,0c0.324,0.109,0.434,0.437,0.324,0.764l0,0c-0.107,0.219-0.324,0.437-0.545,0.437l0,0
		c-0.109,0-0.109,0-0.219,0V89.103z M213.064,89.866c-0.107-0.327,0.109-0.654,0.328-0.764l0,0c0.328-0.109,0.656,0.109,0.766,0.328
		l0,0c0.109,0.328-0.109,0.655-0.33,0.764l0,0c-0.107,0-0.107,0-0.217,0l0,0c-0.219,0-0.438-0.109-0.547-0.437V89.866z
		 M26.389,92.05c-0.326-0.109-0.436-0.436-0.326-0.654l0,0c0.107-0.328,0.436-0.437,0.764-0.437l0,0
		c0.328,0.109,0.436,0.437,0.328,0.764l0,0c-0.109,0.218-0.328,0.437-0.547,0.437l0,0c0,0-0.109,0-0.219,0V92.05z M213.938,92.814
		c-0.109-0.328,0.111-0.655,0.438-0.655l0,0c0.328-0.109,0.656,0.109,0.766,0.328l0,0c0.107,0.328-0.109,0.655-0.438,0.764l0,0
		c-0.109,0-0.109,0-0.219,0l0,0C214.268,93.25,214.049,93.032,213.938,92.814z M25.625,94.997c-0.326-0.109-0.436-0.436-0.436-0.654
		l0,0c0.109-0.327,0.436-0.437,0.654-0.437l0,0c0.326,0.11,0.436,0.437,0.436,0.655l0,0c-0.109,0.218-0.326,0.436-0.545,0.436l0,0
		C25.625,94.997,25.625,94.997,25.625,94.997z M214.703,95.652c-0.109-0.327,0.109-0.655,0.438-0.655l0,0
		c0.326-0.109,0.654,0.11,0.654,0.437l0,0c0.109,0.328-0.109,0.655-0.438,0.655l0,0h-0.109l0,0
		C215.031,96.089,214.812,95.871,214.703,95.652z M24.859,97.945c-0.324-0.109-0.545-0.328-0.434-0.655l0,0
		c0.109-0.327,0.326-0.545,0.654-0.437l0,0c0.326,0.11,0.436,0.328,0.436,0.655l0,0c-0.109,0.219-0.326,0.437-0.545,0.437l0,0
		H24.859z M215.357,98.6c-0.109-0.327,0.109-0.654,0.438-0.654l0,0c0.328-0.109,0.654,0.109,0.654,0.437l0,0
		c0.109,0.327-0.109,0.654-0.436,0.654l0,0h-0.109l0,0C215.576,99.037,215.357,98.818,215.357,98.6z M24.205,100.893
		c-0.326-0.109-0.545-0.328-0.436-0.655l0,0c0.109-0.327,0.326-0.545,0.656-0.437l0,0c0.326,0.109,0.545,0.328,0.434,0.655l0,0
		c0,0.327-0.324,0.437-0.545,0.437l0,0H24.205z M216.014,101.548c-0.109-0.328,0.109-0.655,0.436-0.655l0,0
		c0.328-0.109,0.654,0.109,0.654,0.437l0,0c0,0.327-0.109,0.654-0.436,0.654l0,0h-0.109l0,0
		C216.23,101.984,216.014,101.766,216.014,101.548z M23.66,103.84c-0.328-0.11-0.545-0.328-0.438-0.655l0,0
		c0.109-0.328,0.328-0.546,0.656-0.436l0,0c0.326,0,0.547,0.327,0.436,0.654l0,0c0,0.327-0.326,0.437-0.545,0.437l0,0H23.66z
		 M216.449,104.495c-0.109-0.328,0.219-0.545,0.438-0.655l0,0c0.326,0,0.656,0.218,0.656,0.437l0,0c0,0.327-0.219,0.546-0.439,0.655
		l0,0h-0.109l0,0C216.668,104.932,216.449,104.714,216.449,104.495z M23.223,106.897c-0.326,0-0.545-0.328-0.436-0.655l0,0
		c0-0.327,0.328-0.545,0.654-0.437l0,0c0.328,0,0.547,0.327,0.438,0.655l0,0c0,0.327-0.328,0.545-0.547,0.545l0,0c0,0,0,0-0.109,0
		V106.897z M216.887,107.552L216.887,107.552c0-0.328,0.217-0.546,0.438-0.655l0,0c0.326,0,0.545,0.219,0.654,0.546l0,0
		c0,0.327-0.219,0.545-0.545,0.654l0,0c0,0,0,0-0.109,0l0,0c-0.33,0-0.547-0.218-0.547-0.545H216.887z M22.896,109.953
		c-0.328,0-0.547-0.327-0.547-0.655l0,0c0-0.328,0.328-0.546,0.654-0.546l0,0c0.328,0,0.547,0.328,0.547,0.655l0,0
		c0,0.327-0.328,0.545-0.547,0.545l0,0C23.004,109.953,23.004,109.953,22.896,109.953z M217.213,110.608
		c0-0.327,0.221-0.545,0.547-0.655l0,0c0.328,0,0.547,0.219,0.654,0.546l0,0c0,0.328-0.217,0.546-0.545,0.655l0,0c0,0,0,0-0.109,0
		l0,0C217.434,111.154,217.213,110.936,217.213,110.608z M22.568,113.01c-0.328,0-0.545-0.327-0.545-0.655l0,0
		c0-0.327,0.326-0.545,0.654-0.545l0,0c0.326,0,0.545,0.327,0.545,0.654l0,0c0,0.328-0.219,0.546-0.545,0.546l0,0l0,0H22.568z
		 M217.434,113.665c0-0.328,0.217-0.546,0.545-0.655l0,0c0.328,0,0.545,0.218,0.654,0.546l0,0c0,0.327-0.219,0.545-0.545,0.655l0,0
		l0,0l0,0c-0.328,0-0.545-0.219-0.545-0.546H217.434z M22.35,116.066c-0.326,0-0.545-0.327-0.545-0.545l0,0
		c0-0.327,0.328-0.546,0.545-0.546l0,0c0.328,0,0.547,0.328,0.547,0.546l0,0C22.896,115.849,22.568,116.066,22.35,116.066
		L22.35,116.066L22.35,116.066z M217.543,116.613c0-0.328,0.217-0.546,0.545-0.546l0,0c0.326,0,0.545,0.219,0.545,0.546l0,0
		c0,0.328-0.219,0.546-0.545,0.546l0,0l0,0C217.76,117.159,217.543,116.94,217.543,116.613z M22.35,119.015
		c-0.326,0-0.545-0.328-0.545-0.546l0,0c0-0.327,0.219-0.545,0.545-0.545l0,0c0.328,0,0.547,0.218,0.547,0.545l0,0
		C22.896,118.796,22.678,119.015,22.35,119.015L22.35,119.015z M217.65,119.561L217.65,119.561c0-0.328,0.219-0.546,0.547-0.546l0,0
		c0.326,0,0.545,0.218,0.545,0.546l0,0c0,0.327-0.219,0.545-0.545,0.545l0,0C217.869,120.105,217.65,119.888,217.65,119.561z
		 M21.805,121.416c0-0.328,0.219-0.546,0.545-0.546l0,0c0.328,0,0.547,0.218,0.547,0.546l0,0c0,0.328-0.219,0.546-0.547,0.546l0,0
		C22.023,121.962,21.805,121.744,21.805,121.416z M218.197,123.163c-0.328,0-0.547-0.328-0.547-0.546l0,0
		c0-0.328,0.219-0.547,0.547-0.547l0,0c0.326,0,0.545,0.328,0.545,0.547l0,0C218.742,122.945,218.523,123.163,218.197,123.163
		L218.197,123.163L218.197,123.163z M21.914,124.473c0-0.327,0.219-0.545,0.545-0.545l0,0c0.328,0,0.545,0.218,0.656,0.545l0,0
		c0,0.327-0.219,0.546-0.547,0.546l0,0l0,0l0,0c-0.328,0-0.545-0.219-0.545-0.546H21.914z M217.979,126.11
		c-0.328,0-0.545-0.327-0.545-0.546l0,0c0-0.328,0.326-0.546,0.654-0.546l0,0c0.326,0,0.545,0.327,0.545,0.655l0,0
		c0,0.327-0.219,0.545-0.545,0.545l0,0l0,0L217.979,126.11z M22.023,127.529c0-0.328,0.217-0.545,0.545-0.654l0,0
		c0.328,0,0.547,0.218,0.654,0.545l0,0c0,0.328-0.219,0.546-0.545,0.655l0,0l0,0l0,0c-0.328,0-0.545-0.218-0.545-0.546H22.023z
		 M217.76,129.166c-0.326,0-0.547-0.326-0.547-0.654l0,0c0-0.328,0.33-0.546,0.656-0.546l0,0c0.328,0,0.545,0.328,0.545,0.655l0,0
		c0,0.328-0.326,0.545-0.545,0.545l0,0l0,0H217.76z M22.35,130.586c0-0.327,0.219-0.546,0.547-0.654l0,0
		c0.326,0,0.545,0.219,0.654,0.545l0,0c0,0.328-0.219,0.547-0.547,0.654l0,0c0,0,0,0-0.107,0l0,0
		C22.568,131.131,22.35,130.914,22.35,130.586z M217.434,132.224c-0.33,0-0.547-0.327-0.547-0.655l0,0
		c0-0.327,0.326-0.545,0.656-0.545l0,0c0.326,0,0.545,0.327,0.436,0.654l0,0l0,0l0,0
		C217.979,132.006,217.65,132.224,217.434,132.224L217.434,132.224c0,0,0,0-0.109,0H217.434z M22.787,133.643
		c0-0.327,0.217-0.545,0.436-0.654l0,0c0.328,0,0.547,0.218,0.656,0.436l0,0c0,0.328-0.219,0.547-0.438,0.656l0,0c0,0,0,0-0.109,0
		l0,0c-0.328,0-0.545-0.219-0.545-0.547V133.643z M216.994,135.281c-0.326,0-0.545-0.328-0.436-0.656l0,0
		c0-0.326,0.328-0.545,0.654-0.437l0,0c0.33,0,0.547,0.328,0.438,0.655l0,0c0,0.327-0.326,0.438-0.547,0.438l0,0H216.994z
		 M23.223,136.699c0-0.327,0.109-0.654,0.438-0.654l0,0c0.328-0.109,0.654,0.108,0.654,0.437l0,0c0,0.327-0.109,0.654-0.436,0.654
		l0,0H23.77l0,0C23.441,137.136,23.223,136.918,23.223,136.699z M216.449,138.229c-0.326-0.109-0.545-0.328-0.436-0.656l0,0
		c0.109-0.326,0.326-0.545,0.654-0.437l0,0c0.326,0.11,0.545,0.328,0.436,0.655l0,0c-0.109,0.328-0.326,0.438-0.545,0.438l0,0
		H216.449z M23.77,139.647L23.77,139.647c-0.109-0.328,0.109-0.655,0.436-0.655l0,0c0.33-0.109,0.654,0.109,0.654,0.437l0,0
		c0.111,0.327-0.107,0.655-0.434,0.655l0,0h-0.111l0,0C24.096,140.084,23.77,139.865,23.77,139.647z M215.904,141.176
		c-0.328-0.109-0.547-0.328-0.438-0.656l0,0c0.109-0.326,0.328-0.545,0.656-0.436l0,0c0.326,0.109,0.545,0.327,0.436,0.654l0,0
		c-0.109,0.219-0.328,0.438-0.545,0.438l0,0H215.904z M24.535,142.595c-0.109-0.328,0.107-0.655,0.436-0.655l0,0
		c0.328-0.109,0.654,0.109,0.654,0.438l0,0c0.109,0.326-0.109,0.654-0.436,0.654l0,0H25.08l0,0
		C24.859,143.031,24.643,142.812,24.535,142.595z M215.248,144.123c-0.326-0.109-0.436-0.438-0.436-0.655l0,0
		c0.109-0.327,0.328-0.437,0.654-0.437l0,0c0.328,0.109,0.438,0.328,0.438,0.654l0,0c-0.109,0.219-0.328,0.438-0.547,0.438l0,0
		H215.248z M25.299,145.542L25.299,145.542c-0.109-0.327,0.107-0.655,0.436-0.655l0,0c0.328-0.109,0.654,0.109,0.654,0.438l0,0
		c0.109,0.326-0.109,0.654-0.436,0.654l0,0h-0.109l0,0C25.625,145.979,25.406,145.76,25.299,145.542z M214.484,147.07
		c-0.326-0.109-0.436-0.438-0.326-0.764l0,0c0.109-0.328,0.436-0.438,0.654-0.438l0,0c0.328,0.109,0.436,0.438,0.436,0.764l0,0
		c-0.107,0.219-0.326,0.438-0.545,0.438l0,0C214.594,147.07,214.594,147.07,214.484,147.07z M26.17,148.489
		c-0.107-0.327,0.109-0.655,0.328-0.764l0,0c0.328-0.108,0.656,0.108,0.764,0.327l0,0c0.109,0.328-0.107,0.655-0.326,0.765l0,0
		c-0.109,0-0.109,0-0.219,0l0,0c-0.219,0-0.438-0.22-0.547-0.437V148.489z M213.611,149.908c-0.328-0.109-0.438-0.436-0.328-0.764
		l0,0c0.109-0.327,0.438-0.437,0.766-0.327l0,0c0.326,0.108,0.436,0.437,0.326,0.765l0,0c-0.107,0.217-0.326,0.436-0.547,0.436l0,0
		c-0.107,0-0.107,0-0.217,0V149.908z M27.154,151.328c-0.109-0.328,0.107-0.655,0.326-0.764l0,0
		c0.328-0.109,0.654,0.108,0.766,0.326l0,0c0.109,0.328,0,0.656-0.328,0.765l0,0c-0.109,0-0.109,0-0.217,0l0,0
		C27.48,151.655,27.262,151.547,27.154,151.328z M212.629,152.748c-0.328-0.11-0.436-0.438-0.328-0.765l0,0
		c0.109-0.328,0.438-0.437,0.764-0.328l0,0c0.328,0.109,0.439,0.437,0.328,0.765l0,0c-0.109,0.218-0.328,0.328-0.545,0.328l0,0
		C212.738,152.748,212.738,152.748,212.629,152.748z M28.135,154.166c-0.109-0.327,0-0.654,0.33-0.764l0,0
		c0.326-0.109,0.654,0,0.764,0.328l0,0c0.109,0.326,0,0.654-0.328,0.764l0,0c-0.109,0-0.109,0-0.219,0l0,0
		C28.465,154.494,28.246,154.385,28.135,154.166z M211.537,155.585c-0.328-0.108-0.436-0.437-0.328-0.764l0,0
		c0.109-0.327,0.438-0.437,0.766-0.327l0,0c0.326,0.108,0.436,0.437,0.326,0.764l0,0c-0.107,0.219-0.326,0.327-0.545,0.327l0,0
		C211.646,155.585,211.646,155.585,211.537,155.585z M29.229,157.004c-0.109-0.326,0-0.654,0.326-0.764l0,0
		c0.328-0.109,0.656,0,0.766,0.328l0,0c0.107,0.327,0,0.654-0.328,0.764l0,0c-0.109,0-0.109,0-0.219,0l0,0
		C29.555,157.332,29.338,157.223,29.229,157.004z M210.338,158.424c-0.33-0.109-0.439-0.438-0.33-0.764l0,0
		c0.109-0.328,0.438-0.438,0.766-0.328l0,0c0.328,0.109,0.436,0.437,0.328,0.765l0,0c-0.109,0.218-0.328,0.327-0.547,0.327l0,0
		C210.445,158.424,210.445,158.424,210.338,158.424z M30.428,159.844L30.428,159.844c-0.107-0.328,0-0.656,0.328-0.765l0,0
		c0.328-0.11,0.654,0,0.766,0.327l0,0c0.109,0.327,0,0.655-0.33,0.764l0,0c-0.107,0-0.217,0-0.217,0l0,0
		C30.756,160.17,30.537,160.062,30.428,159.844z M209.135,161.152c-0.326-0.108-0.436-0.436-0.326-0.764l0,0
		c0.109-0.327,0.436-0.438,0.764-0.327l0,0c0.326,0.108,0.436,0.437,0.326,0.765l0,0c-0.107,0.218-0.326,0.326-0.545,0.326l0,0
		c-0.109,0-0.219,0-0.219-0.108V161.152z M31.738,162.572c-0.107-0.328,0-0.654,0.217-0.764l0,0c0.33-0.109,0.656,0,0.766,0.326l0,0
		c0.109,0.328,0,0.656-0.217,0.765l0,0c-0.109,0-0.219,0.109-0.219,0.109l0,0c-0.219,0-0.438-0.109-0.547-0.327V162.572z
		 M207.826,163.883c-0.328-0.109-0.438-0.438-0.219-0.766l0,0c0.109-0.326,0.436-0.436,0.764-0.218l0,0
		c0.328,0.109,0.438,0.437,0.219,0.765l0,0c-0.109,0.219-0.328,0.327-0.547,0.327l0,0
		C207.936,163.991,207.826,163.991,207.826,163.883z M33.049,165.301c-0.109-0.327,0-0.654,0.219-0.764l0,0
		c0.326-0.109,0.654,0,0.764,0.219l0,0c0.109,0.328,0,0.654-0.219,0.764l0,0c-0.109,0-0.219,0.109-0.326,0.109l0,0
		c-0.219,0-0.438-0.109-0.547-0.328H33.049z M206.408,166.611c-0.33-0.109-0.33-0.545-0.221-0.764l0,0
		c0.109-0.328,0.545-0.328,0.766-0.219l0,0c0.326,0.109,0.326,0.438,0.219,0.764l0,0c-0.109,0.219-0.33,0.328-0.547,0.328l0,0
		C206.516,166.721,206.408,166.721,206.408,166.611z M34.576,168.031c-0.109-0.328-0.109-0.656,0.221-0.766l0,0
		c0.324-0.108,0.654-0.108,0.764,0.22l0,0c0.109,0.327,0.109,0.654-0.219,0.764l0,0c-0.111,0.108-0.221,0.108-0.328,0.108l0,0
		C34.797,168.357,34.686,168.249,34.576,168.031z M204.986,169.34c-0.326-0.108-0.326-0.545-0.217-0.764l0,0
		c0.217-0.327,0.545-0.327,0.764-0.219l0,0c0.219,0.219,0.328,0.547,0.219,0.765l0,0c-0.109,0.218-0.328,0.328-0.438,0.328l0,0
		C205.205,169.45,205.096,169.45,204.986,169.34z M36.105,170.65L36.105,170.65c-0.219-0.218-0.109-0.654,0.219-0.764l0,0
		c0.217-0.219,0.654-0.109,0.764,0.218l0,0c0.219,0.218,0.109,0.655-0.219,0.765l0,0c-0.109,0.109-0.219,0.109-0.328,0.109l0,0
		C36.324,170.979,36.215,170.869,36.105,170.65z M203.35,171.852c-0.328-0.219-0.328-0.547-0.217-0.765l0,0
		c0.217-0.218,0.545-0.327,0.764-0.218l0,0c0.326,0.218,0.326,0.546,0.217,0.764l0,0c-0.107,0.219-0.326,0.328-0.436,0.328l0,0
		C203.566,171.961,203.459,171.961,203.35,171.852z M37.742,173.162c-0.219-0.219-0.109-0.656,0.219-0.765l0,0
		c0.219-0.218,0.656-0.109,0.766,0.218l0,0c0.217,0.219,0.109,0.655-0.221,0.765l0,0c-0.109,0.108-0.217,0.108-0.326,0.108l0,0
		c-0.219,0-0.328-0.108-0.438-0.218V173.162z M201.711,174.362c-0.217-0.218-0.326-0.546-0.107-0.765l0,0
		c0.219-0.218,0.545-0.327,0.764-0.218l0,0c0.219,0.218,0.326,0.546,0.109,0.765l0,0c-0.109,0.218-0.328,0.218-0.438,0.218l0,0
		c-0.109,0-0.217,0-0.328-0.109V174.362z M39.381,175.672L39.381,175.672c-0.219-0.219-0.109-0.654,0.109-0.764l0,0
		c0.217-0.219,0.654-0.109,0.764,0.109l0,0c0.217,0.218,0.109,0.654-0.109,0.764l0,0c-0.109,0.109-0.219,0.109-0.328,0.109l0,0
		C39.6,175.891,39.49,175.781,39.381,175.672z M199.967,176.873c-0.221-0.219-0.33-0.546-0.109-0.764l0,0
		c0.219-0.219,0.545-0.328,0.764-0.109l0,0c0.219,0.219,0.326,0.546,0.109,0.764l0,0c-0.109,0.109-0.328,0.219-0.438,0.219l0,0
		C200.184,176.982,200.076,176.982,199.967,176.873z M41.236,178.184c-0.219-0.219-0.109-0.655,0.109-0.766l0,0
		c0.217-0.218,0.656-0.108,0.764,0.11l0,0c0.217,0.218,0.109,0.655-0.107,0.765l0,0c-0.109,0.107-0.221,0.107-0.33,0.107l0,0
		C41.455,178.4,41.346,178.293,41.236,178.184z M198.219,179.275c-0.219-0.219-0.326-0.547-0.109-0.765l0,0
		c0.219-0.218,0.547-0.327,0.764-0.11l0,0c0.219,0.219,0.328,0.547,0.109,0.766l0,0c-0.109,0.109-0.326,0.219-0.436,0.219l0,0
		C198.438,179.385,198.328,179.385,198.219,179.275z M43.092,180.585c-0.219-0.219-0.109-0.655,0.109-0.765l0,0
		c0.219-0.219,0.656-0.109,0.764,0.109l0,0c0.219,0.219,0.109,0.655-0.107,0.764l0,0c-0.111,0.109-0.221,0.109-0.328,0.109l0,0
		C43.311,180.803,43.201,180.693,43.092,180.585z M196.361,181.676c-0.217-0.218-0.324-0.545-0.107-0.764l0,0
		c0.217-0.219,0.547-0.327,0.764-0.109l0,0c0.219,0.219,0.328,0.547,0.109,0.764l0,0c-0.109,0.109-0.326,0.219-0.436,0.219l0,0
		C196.582,181.785,196.471,181.785,196.361,181.676z M45.057,182.986c-0.219-0.219-0.219-0.546,0.111-0.764l0,0
		c0.217-0.219,0.545-0.219,0.764,0.109l0,0c0.217,0.219,0.217,0.654-0.109,0.764l0,0c-0.109,0.109-0.221,0.109-0.33,0.109l0,0
		C45.275,183.205,45.168,183.096,45.057,182.986z M194.398,183.969c-0.219-0.218-0.219-0.546-0.109-0.764l0,0
		c0.219-0.219,0.545-0.219,0.764-0.109l0,0c0.219,0.219,0.219,0.546,0.109,0.764l0,0c-0.109,0.109-0.328,0.219-0.436,0.219l0,0
		C194.617,184.078,194.508,184.078,194.398,183.969z M47.021,185.279L47.021,185.279L47.021,185.279
		c-0.217-0.219-0.217-0.547,0-0.764l0,0c0.219-0.219,0.656-0.219,0.766,0l0,0c0.217,0.217,0.217,0.654,0,0.764l0,0
		c-0.109,0.109-0.219,0.109-0.328,0.109l0,0c-0.109,0-0.328-0.109-0.438-0.219V185.279z M192.324,186.262
		c-0.219-0.219-0.219-0.546,0-0.764l0,0c0.217-0.219,0.547-0.219,0.764,0l0,0c0.219,0.218,0.219,0.545,0,0.764l0,0
		c-0.109,0.109-0.217,0.219-0.438,0.219l0,0c-0.109,0-0.326-0.109-0.436-0.109L192.324,186.262z M49.098,187.571
		c-0.221-0.218-0.221-0.546,0-0.765l0,0c0.217-0.218,0.545-0.218,0.764,0l0,0c0.217,0.219,0.217,0.547,0,0.765l0,0
		c-0.109,0.109-0.219,0.109-0.439,0.109l0,0c-0.107,0-0.324-0.109-0.434-0.218L49.098,187.571z M190.25,188.554
		c-0.219-0.218-0.219-0.546,0-0.873l0,0c0.219-0.218,0.545-0.218,0.764,0l0,0c0.219,0.219,0.219,0.546,0,0.765l0,0
		c-0.109,0.108-0.219,0.219-0.438,0.219l0,0c-0.107,0-0.326,0-0.436-0.11H190.25z M51.17,189.754L51.17,189.754
		c-0.217-0.218-0.217-0.545,0-0.764l0,0c0.219-0.219,0.547-0.219,0.764,0l0,0c0.219,0.219,0.219,0.546,0,0.874l0,0
		c-0.109,0.108-0.217,0.218-0.436,0.218l0,0c-0.109,0-0.328-0.109-0.438-0.218L51.17,189.754z M188.066,190.629
		c-0.219-0.219-0.219-0.547,0-0.765l0,0c0.219-0.218,0.545-0.218,0.764,0l0,0c0.219,0.218,0.219,0.546,0,0.873l0,0
		c-0.109,0.109-0.219,0.109-0.438,0.109l0,0c-0.107,0-0.326-0.109-0.436-0.218H188.066z M53.354,191.829
		c-0.217-0.218-0.217-0.546,0-0.765l0,0c0.219-0.218,0.547-0.218,0.764,0l0,0c0.219,0.219,0.219,0.547,0,0.765l0,0
		c-0.109,0.108-0.326,0.218-0.436,0.218l0,0c-0.109,0-0.328,0-0.438-0.109L53.354,191.829z M185.775,192.702
		c-0.221-0.218-0.221-0.546,0-0.765l0,0c0.217-0.218,0.545-0.218,0.764,0l0,0c0.217,0.219,0.217,0.547,0,0.765l0,0
		c-0.109,0.109-0.219,0.109-0.328,0.109l0,0c-0.219,0-0.328-0.109-0.436-0.218V192.702z M55.646,193.902
		c-0.219-0.217-0.219-0.545-0.107-0.764l0,0c0.217-0.219,0.543-0.219,0.764-0.109l0,0c0.217,0.219,0.217,0.547,0.107,0.765l0,0
		c-0.107,0.108-0.217,0.219-0.438,0.219l0,0C55.863,194.013,55.646,194.013,55.646,193.902z M183.59,194.667
		c-0.217-0.218-0.217-0.546,0.109-0.765l0,0c0.219-0.217,0.656-0.217,0.764,0.11l0,0c0.219,0.218,0.219,0.546-0.107,0.764l0,0
		c-0.109,0.108-0.219,0.108-0.328,0.108l0,0C183.809,194.885,183.699,194.776,183.59,194.667z M58.049,195.867
		c-0.219-0.217-0.219-0.545-0.111-0.764l0,0c0.219-0.219,0.547-0.327,0.766-0.108l0,0c0.219,0.218,0.326,0.546,0.109,0.765l0,0
		c-0.109,0.107-0.328,0.218-0.438,0.218l0,0C58.266,195.978,58.156,195.978,58.049,195.867z M181.297,196.633
		c-0.217-0.219-0.107-0.655,0.109-0.766l0,0c0.219-0.217,0.654-0.107,0.764,0.11l0,0c0.221,0.218,0.109,0.655-0.109,0.765l0,0
		c-0.107,0.109-0.217,0.109-0.326,0.109l0,0C181.516,196.852,181.406,196.742,181.297,196.633z M60.449,197.834
		c-0.217-0.219-0.326-0.547-0.109-0.766l0,0c0.219-0.217,0.547-0.326,0.766-0.108l0,0c0.219,0.218,0.326,0.546,0.107,0.765l0,0
		c-0.107,0.109-0.326,0.218-0.436,0.218l0,0C60.668,197.942,60.559,197.942,60.449,197.834z M178.895,198.488
		c-0.217-0.219-0.107-0.654,0.109-0.764l0,0c0.221-0.219,0.656-0.109,0.766,0.109l0,0c0.219,0.218,0.109,0.654-0.109,0.764l0,0
		c-0.109,0.109-0.219,0.109-0.326,0.109l0,0C179.115,198.707,179.004,198.598,178.895,198.488z M62.852,199.689L62.852,199.689
		c-0.219-0.219-0.328-0.547-0.109-0.765l0,0c0.217-0.218,0.547-0.327,0.764-0.108l0,0c0.217,0.217,0.328,0.545,0.109,0.764l0,0
		c-0.109,0.219-0.326,0.219-0.438,0.219l0,0C63.068,199.799,62.959,199.799,62.852,199.689z M176.385,200.234
		c-0.217-0.217-0.109-0.654,0.109-0.764l0,0c0.219-0.219,0.656-0.109,0.766,0.109l0,0c0.217,0.219,0.107,0.654-0.109,0.764l0,0
		c-0.109,0.109-0.219,0.109-0.328,0.109l0,0C176.604,200.453,176.494,200.344,176.385,200.234z M65.361,201.436
		c-0.217-0.218-0.326-0.546-0.107-0.764l0,0c0.217-0.219,0.545-0.328,0.764-0.109l0,0c0.217,0.219,0.326,0.546,0.107,0.764l0,0
		c-0.107,0.219-0.326,0.219-0.436,0.219l0,0C65.58,201.545,65.471,201.545,65.361,201.436z M173.875,201.982
		c-0.219-0.328-0.109-0.656,0.219-0.765l0,0c0.217-0.218,0.654-0.109,0.764,0.218l0,0c0.217,0.219,0.107,0.655-0.219,0.765l0,0
		c-0.109,0.108-0.219,0.108-0.328,0.108l0,0c-0.217,0-0.326-0.108-0.436-0.218V201.982z M67.873,203.073
		c-0.219-0.218-0.328-0.546-0.219-0.765l0,0c0.219-0.218,0.547-0.326,0.766-0.218l0,0c0.326,0.218,0.326,0.546,0.217,0.765l0,0
		c-0.109,0.218-0.328,0.218-0.436,0.218l0,0c-0.109,0-0.219,0-0.328-0.108V203.073z M171.254,203.51
		c-0.219-0.327-0.109-0.654,0.221-0.764l0,0c0.324-0.219,0.654-0.109,0.764,0.219l0,0c0.217,0.326,0.107,0.654-0.219,0.764l0,0
		c-0.111,0.109-0.221,0.109-0.328,0.109l0,0C171.475,203.838,171.363,203.729,171.254,203.51z M70.494,204.602
		c-0.33-0.218-0.33-0.546-0.221-0.764l0,0c0.111-0.219,0.547-0.328,0.766-0.219l0,0c0.219,0.219,0.328,0.546,0.219,0.765l0,0
		c-0.109,0.218-0.328,0.218-0.438,0.218l0,0c-0.109,0-0.217,0-0.326-0.109V204.602z M168.633,205.038
		c-0.217-0.327-0.107-0.654,0.221-0.765l0,0c0.326-0.218,0.654-0.108,0.764,0.219l0,0c0.109,0.328,0.109,0.655-0.219,0.764l0,0
		c-0.109,0-0.219,0.11-0.326,0.11l0,0C168.854,205.366,168.744,205.256,168.633,205.038z M73.113,206.13
		c-0.328-0.109-0.328-0.437-0.219-0.764l0,0c0.109-0.328,0.545-0.328,0.766-0.219l0,0c0.326,0.108,0.326,0.546,0.217,0.765l0,0
		c-0.107,0.218-0.328,0.326-0.547,0.326l0,0C73.223,206.238,73.113,206.238,73.113,206.13z M166.014,206.457
		c-0.107-0.327,0-0.654,0.219-0.764l0,0c0.328-0.109,0.656,0,0.764,0.219l0,0c0.109,0.218,0,0.654-0.217,0.764l0,0
		c-0.109,0-0.219,0.109-0.219,0.109l0,0C166.342,206.785,166.123,206.676,166.014,206.457z M75.842,207.549
		c-0.326-0.109-0.438-0.436-0.219-0.764l0,0c0.109-0.219,0.438-0.328,0.766-0.219l0,0c0.326,0.109,0.436,0.437,0.217,0.765l0,0
		c-0.109,0.218-0.326,0.327-0.545,0.327l0,0C75.951,207.658,75.842,207.658,75.842,207.549z M163.285,207.877
		c-0.109-0.328,0-0.656,0.219-0.764l0,0c0.326-0.11,0.654,0,0.764,0.218l0,0c0.109,0.327,0,0.655-0.219,0.765l0,0
		c-0.109,0-0.219,0.108-0.219,0.108l0,0C163.613,208.204,163.395,208.096,163.285,207.877z M78.572,208.968
		c-0.328-0.108-0.438-0.437-0.328-0.764l0,0c0.109-0.327,0.436-0.437,0.764-0.327l0,0c0.328,0.109,0.438,0.437,0.328,0.764l0,0
		c-0.109,0.219-0.328,0.327-0.545,0.327l0,0c-0.111,0-0.219,0-0.219-0.108V208.968z M160.557,209.187
		c-0.109-0.327,0-0.655,0.326-0.765l0,0c0.328-0.108,0.654,0,0.766,0.328l0,0c0.109,0.328,0,0.654-0.221,0.764l0,0
		c-0.107,0-0.217,0-0.217,0l0,0c-0.219,0-0.438-0.109-0.547-0.327H160.557z M81.301,210.169c-0.328-0.108-0.436-0.437-0.328-0.765
		l0,0c0.109-0.326,0.438-0.437,0.766-0.326l0,0c0.326,0.108,0.436,0.436,0.326,0.764l0,0c-0.109,0.219-0.326,0.327-0.545,0.327l0,0
		c-0.109,0-0.109,0-0.219-0.108V210.169z M157.717,210.387c-0.109-0.326,0-0.654,0.328-0.764l0,0c0.328-0.109,0.656,0,0.764,0.328
		l0,0c0.109,0.327,0,0.654-0.326,0.764l0,0c-0.109,0-0.109,0-0.221,0l0,0C158.045,210.715,157.828,210.605,157.717,210.387z
		 M84.139,211.369c-0.328-0.108-0.438-0.436-0.328-0.764l0,0c0.109-0.327,0.438-0.437,0.766-0.327l0,0
		c0.328,0.108,0.436,0.437,0.328,0.765l0,0c-0.109,0.218-0.328,0.326-0.547,0.326l0,0C84.248,211.369,84.248,211.369,84.139,211.369
		z M154.988,211.479c-0.109-0.327,0-0.655,0.328-0.765l0,0c0.326-0.109,0.654,0,0.764,0.328l0,0c0.109,0.326,0,0.654-0.328,0.764
		l0,0c-0.109,0-0.109,0-0.217,0l0,0C155.316,211.807,155.098,211.697,154.988,211.479z M87.086,212.462L87.086,212.462
		c-0.328-0.108-0.436-0.437-0.328-0.765l0,0c0.109-0.328,0.438-0.437,0.766-0.328l0,0c0.328,0.11,0.438,0.438,0.328,0.765l0,0
		c-0.111,0.22-0.328,0.328-0.545,0.328l0,0C87.195,212.462,87.195,212.462,87.086,212.462z M152.15,212.462
		c-0.109-0.328,0.109-0.655,0.326-0.765l0,0c0.328-0.109,0.656,0,0.766,0.328l0,0c0.109,0.328,0,0.654-0.328,0.764l0,0
		c-0.109,0-0.109,0-0.219,0l0,0c-0.219,0-0.436-0.109-0.545-0.436V212.462z M89.924,213.444c-0.326-0.11-0.436-0.437-0.326-0.765
		l0,0c0.109-0.326,0.436-0.437,0.764-0.326l0,0c0.328,0.108,0.436,0.436,0.328,0.764l0,0c-0.109,0.217-0.328,0.436-0.547,0.436l0,0
		c-0.109,0-0.109,0-0.219,0V213.444z M149.203,213.444c-0.109-0.327,0.109-0.655,0.326-0.765l0,0
		c0.328-0.109,0.656,0.109,0.764,0.328l0,0c0.109,0.326-0.107,0.654-0.326,0.764l0,0l0,0l0,0c-0.109,0-0.109,0-0.219,0l0,0
		c-0.219,0-0.436-0.109-0.545-0.438V213.444z M92.764,214.318c-0.328-0.109-0.438-0.438-0.438-0.656l0,0
		c0.109-0.328,0.438-0.437,0.766-0.437l0,0c0.326,0.108,0.436,0.437,0.326,0.765l0,0c-0.109,0.219-0.326,0.437-0.547,0.437l0,0
		h-0.107V214.318z M146.256,214.209c-0.109-0.328,0.107-0.656,0.436-0.765l0,0c0.328-0.11,0.656,0.108,0.656,0.437l0,0
		c0.109,0.328-0.111,0.654-0.438,0.654l0,0h-0.107l0,0c-0.221,0-0.439-0.217-0.547-0.436V214.209z M95.711,215.082L95.711,215.082
		L95.711,215.082c-0.328-0.109-0.438-0.438-0.438-0.655l0,0c0.109-0.327,0.328-0.437,0.656-0.437l0,0
		c0.328,0.109,0.436,0.328,0.436,0.654l0,0c-0.107,0.219-0.326,0.438-0.545,0.438l0,0H95.711z M143.307,214.973
		c-0.109-0.328,0.109-0.654,0.438-0.654l0,0c0.328-0.109,0.656,0.108,0.656,0.436l0,0c0.107,0.328-0.109,0.655-0.439,0.655l0,0
		h-0.107l0,0C143.637,215.409,143.416,215.191,143.307,214.973z M98.656,215.846c-0.324-0.109-0.545-0.327-0.434-0.654l0,0
		c0.109-0.328,0.326-0.547,0.654-0.438l0,0c0.328,0.109,0.545,0.328,0.436,0.655l0,0c-0.107,0.327-0.326,0.437-0.545,0.437l0,0
		H98.656z M140.361,215.627c-0.109-0.326,0.109-0.654,0.436-0.654l0,0c0.328-0.109,0.654,0.109,0.654,0.437l0,0
		c0.109,0.327-0.109,0.655-0.436,0.655l0,0h-0.109l0,0C140.688,216.064,140.361,215.846,140.361,215.627z M101.715,216.5
		c-0.328-0.108-0.547-0.326-0.438-0.654l0,0c0.109-0.327,0.33-0.545,0.654-0.437l0,0c0.33,0.109,0.547,0.327,0.439,0.655l0,0
		c-0.109,0.327-0.328,0.436-0.547,0.436l0,0H101.715z M137.412,216.283c-0.107-0.328,0.109-0.656,0.438-0.656l0,0
		c0.326-0.108,0.654,0.109,0.654,0.438l0,0c0,0.327-0.109,0.655-0.436,0.655l0,0h-0.109l0,0
		C137.631,216.72,137.412,216.5,137.412,216.283z M104.662,217.047c-0.328,0-0.545-0.327-0.438-0.655l0,0
		c0-0.327,0.328-0.546,0.656-0.437l0,0c0.326,0,0.547,0.328,0.438,0.654l0,0c0,0.219-0.328,0.438-0.545,0.438l0,0H104.662z
		 M134.355,216.72c-0.109-0.328,0.219-0.655,0.438-0.655l0,0c0.328,0,0.654,0.219,0.654,0.436l0,0c0,0.328-0.219,0.547-0.438,0.656
		l0,0h-0.107l0,0C134.574,217.156,134.355,216.938,134.355,216.72z M107.609,217.484c-0.326,0-0.545-0.328-0.438-0.656l0,0
		c0-0.328,0.328-0.545,0.656-0.545l0,0c0.328,0,0.545,0.326,0.436,0.654l0,0c0,0.328-0.326,0.547-0.545,0.547l0,0
		C107.719,217.484,107.719,217.484,107.609,217.484z M131.299,217.156c0-0.328,0.219-0.547,0.547-0.656l0,0
		c0.326,0,0.545,0.22,0.654,0.547l0,0c0,0.327-0.219,0.545-0.545,0.654l0,0c0,0,0,0-0.109,0l0,0
		C131.518,217.701,131.299,217.484,131.299,217.156z M110.666,217.811L110.666,217.811c-0.326,0-0.545-0.326-0.545-0.654l0,0
		c0-0.328,0.326-0.547,0.654-0.547l0,0c0.328,0,0.547,0.328,0.547,0.656l0,0c0,0.326-0.328,0.545-0.547,0.545l0,0l0,0H110.666z
		 M128.352,217.374c0-0.327,0.219-0.546,0.545-0.654l0,0c0.328,0,0.547,0.218,0.656,0.546l0,0c0,0.326-0.217,0.545-0.547,0.654l0,0
		l0,0l0,0c-0.326,0-0.545-0.219-0.545-0.546H128.352z M113.723,218.029c-0.326,0-0.545-0.328-0.545-0.655l0,0
		c0-0.327,0.328-0.546,0.654-0.546l0,0c0.328,0,0.547,0.328,0.547,0.656l0,0c0,0.326-0.328,0.545-0.547,0.545l0,0l0,0H113.723z
		 M125.295,217.592c0-0.326,0.219-0.545,0.545-0.654l0,0c0.33,0,0.547,0.219,0.547,0.547l0,0c0,0.326-0.217,0.545-0.547,0.545l0,0
		l0,0l0,0c-0.326,0-0.545-0.219-0.545-0.545V217.592z M116.779,218.248c-0.326,0-0.545-0.328-0.545-0.547l0,0
		c0-0.327,0.328-0.545,0.545-0.545l0,0c0.328,0,0.547,0.328,0.547,0.545l0,0C117.326,218.029,116.998,218.248,116.779,218.248
		L116.779,218.248z M122.348,217.701c0-0.327,0.217-0.545,0.547-0.545l0,0c0.326,0,0.545,0.218,0.545,0.545l0,0
		c0,0.328-0.219,0.547-0.545,0.547l0,0l0,0l0,0C122.564,218.248,122.348,218.029,122.348,217.701z M119.291,217.701
		c0-0.327,0.219-0.545,0.547-0.545l0,0c0.326,0,0.545,0.218,0.545,0.545l0,0c0,0.328-0.219,0.547-0.545,0.547l0,0
		C119.51,218.248,119.291,218.029,119.291,217.701z"/>
	<path fill="#383535" d="M119.291,17.489c0-0.327,0.219-0.545,0.547-0.545l0,0c0.326,0,0.545,0.218,0.545,0.545l0,0
		c0,0.327-0.219,0.546-0.545,0.546l0,0C119.51,18.035,119.291,17.816,119.291,17.489z M223,118.032v0.437
		c-0.109,0.218-0.328,0.328-0.547,0.328l0,0c-0.326,0-0.545-0.218-0.545-0.546c0-0.327,0.219-0.546,0.545-0.546l0,0
		C222.672,117.704,222.891,117.814,223,118.032z M223,121.416v0.437c-0.109,0.218-0.328,0.328-0.547,0.328l0,0
		c-0.326,0-0.545-0.219-0.545-0.546l0,0c0-0.328,0.219-0.547,0.545-0.547l0,0C222.672,121.088,222.891,121.198,223,121.416z
		 M123.221,18.144c-0.326,0-0.547-0.328-0.547-0.546l0,0c0-0.327,0.221-0.546,0.547-0.546l0,0c0.328,0,0.547,0.328,0.547,0.546l0,0
		C123.768,17.926,123.549,18.144,123.221,18.144L123.221,18.144z M116.016,17.598c0-0.327,0.219-0.546,0.547-0.546l0,0
		c0.326,0,0.545,0.219,0.545,0.546l0,0c0,0.328-0.219,0.546-0.545,0.546l0,0l0,0l0,0C116.234,18.144,116.016,17.926,116.016,17.598z
		 M126.605,18.253c-0.328,0-0.545-0.327-0.545-0.655l0,0c0-0.327,0.326-0.546,0.654-0.546l0,0c0.326,0,0.545,0.328,0.545,0.655l0,0
		c0,0.328-0.326,0.546-0.545,0.546l0,0l0,0H126.605z M112.74,17.707c0-0.327,0.219-0.545,0.547-0.655l0,0
		c0.326,0,0.545,0.219,0.654,0.546l0,0c0,0.328-0.219,0.546-0.545,0.655l0,0l0,0l0,0c-0.328,0-0.547-0.218-0.547-0.546H112.74z
		 M129.881,18.471c-0.328,0-0.545-0.327-0.545-0.655l0,0c0-0.327,0.324-0.545,0.654-0.545l0,0c0.326,0,0.545,0.327,0.545,0.655l0,0
		c0,0.327-0.328,0.545-0.545,0.545l0,0l0,0H129.881z M109.357,18.035c0-0.328,0.217-0.546,0.545-0.655l0,0
		c0.328,0,0.545,0.218,0.656,0.546l0,0c0,0.327-0.219,0.545-0.547,0.655l0,0c0,0,0,0-0.109,0l0,0
		C109.574,18.581,109.357,18.362,109.357,18.035z M133.156,18.908c-0.33,0-0.547-0.327-0.438-0.655l0,0
		c0-0.327,0.326-0.546,0.654-0.437l0,0c0.328,0,0.547,0.328,0.438,0.655l0,0c0,0.327-0.328,0.437-0.545,0.437l0,0
		C133.266,18.908,133.266,18.908,133.156,18.908z M106.082,18.471c0-0.327,0.219-0.545,0.436-0.655l0,0
		c0.328,0,0.547,0.219,0.654,0.437l0,0c0,0.328-0.217,0.545-0.436,0.655l0,0c0,0,0,0-0.109,0l0,0c-0.326,0-0.545-0.219-0.545-0.546
		V18.471z M136.432,19.345L136.432,19.345c-0.33,0-0.547-0.328-0.439-0.655l0,0c0-0.328,0.328-0.545,0.656-0.437l0,0
		c0.328,0.109,0.547,0.328,0.438,0.655l0,0c0,0.327-0.328,0.437-0.545,0.437l0,0H136.432z M102.697,18.908
		c0-0.327,0.219-0.546,0.438-0.655l0,0c0.326,0,0.654,0.218,0.654,0.437l0,0c0.109,0.328-0.109,0.655-0.436,0.655l0,0h-0.111l0,0
		C102.916,19.345,102.697,19.126,102.697,18.908z M139.596,19.891c-0.328-0.11-0.545-0.328-0.438-0.655l0,0
		c0-0.327,0.328-0.546,0.656-0.437l0,0c0.326,0.11,0.547,0.328,0.438,0.655l0,0c0,0.327-0.328,0.437-0.545,0.437l0,0H139.596z
		 M99.422,19.562c-0.109-0.327,0.109-0.654,0.438-0.654l0,0c0.328-0.11,0.654,0.109,0.654,0.437l0,0
		c0.109,0.328-0.109,0.655-0.436,0.655l0,0h-0.109l0,0C99.641,20,99.422,19.781,99.422,19.562z M142.871,20.655
		c-0.328-0.109-0.438-0.328-0.438-0.655l0,0c0.109-0.327,0.328-0.546,0.656-0.437l0,0c0.326,0.11,0.547,0.328,0.438,0.655l0,0
		c-0.111,0.218-0.33,0.437-0.547,0.437l0,0H142.871z M96.146,20.327c-0.107-0.328,0.111-0.655,0.438-0.655l0,0
		c0.328-0.11,0.654,0.108,0.654,0.437l0,0c0.109,0.327-0.109,0.654-0.436,0.654l0,0h-0.109l0,0
		C96.475,20.763,96.258,20.546,96.146,20.327z M146.146,21.418L146.146,21.418c-0.328-0.108-0.438-0.437-0.438-0.655l0,0
		c0.109-0.327,0.438-0.436,0.654-0.436l0,0c0.328,0.109,0.439,0.328,0.439,0.655l0,0c-0.111,0.218-0.33,0.437-0.547,0.437l0,0
		H146.146z M92.982,21.091c-0.111-0.328,0.109-0.655,0.436-0.655l0,0c0.328-0.109,0.654,0.11,0.654,0.437l0,0
		c0.109,0.327-0.109,0.655-0.436,0.655l0,0h-0.109l0,0C93.309,21.528,93.092,21.31,92.982,21.091z M149.312,22.292L149.312,22.292
		c-0.328-0.11-0.438-0.437-0.328-0.764l0,0c0.109-0.328,0.438-0.437,0.764-0.328l0,0c0.328,0.11,0.438,0.437,0.328,0.764l0,0
		c-0.109,0.218-0.328,0.437-0.547,0.437l0,0c0,0-0.107,0-0.217,0V22.292z M89.707,22.074c-0.109-0.327,0.109-0.655,0.326-0.764l0,0
		c0.328-0.11,0.656,0.108,0.764,0.327l0,0c0.109,0.327-0.107,0.655-0.326,0.764l0,0c0,0-0.109,0-0.219,0l0,0
		c-0.219,0-0.436-0.108-0.545-0.437V22.074z M152.477,23.275c-0.326-0.11-0.436-0.437-0.326-0.764l0,0
		c0.109-0.328,0.438-0.437,0.764-0.328l0,0c0.328,0.11,0.438,0.437,0.328,0.765l0,0c-0.109,0.217-0.328,0.327-0.547,0.327l0,0
		C152.588,23.275,152.588,23.275,152.477,23.275z M86.541,23.056c-0.109-0.328,0.109-0.655,0.326-0.764l0,0
		c0.328-0.11,0.656,0,0.764,0.327l0,0c0.109,0.328,0,0.655-0.324,0.764l0,0c-0.111,0-0.111,0-0.221,0l0,0
		c-0.219,0-0.436-0.109-0.545-0.436V23.056z M155.535,24.366c-0.328-0.109-0.438-0.437-0.328-0.764l0,0
		c0.109-0.327,0.436-0.437,0.764-0.327l0,0c0.328,0.109,0.438,0.437,0.328,0.764l0,0c-0.109,0.219-0.328,0.328-0.547,0.328l0,0
		C155.643,24.366,155.643,24.366,155.535,24.366z M83.375,24.257c-0.109-0.328,0-0.655,0.326-0.764l0,0l0,0l0,0
		c0.33-0.109,0.656,0,0.764,0.327l0,0c0.111,0.327,0,0.655-0.326,0.764l0,0c-0.107,0-0.107,0-0.219,0l0,0
		C83.701,24.584,83.484,24.476,83.375,24.257z M158.592,25.676c-0.33-0.109-0.438-0.437-0.33-0.764l0,0
		c0.111-0.328,0.439-0.437,0.766-0.328l0,0c0.328,0.109,0.438,0.437,0.328,0.764l0,0c-0.109,0.218-0.328,0.328-0.547,0.328l0,0
		C158.701,25.676,158.701,25.676,158.592,25.676z M80.209,25.567c-0.109-0.327,0-0.654,0.326-0.764l0,0
		c0.33-0.109,0.654,0,0.766,0.327l0,0c0.109,0.328,0,0.655-0.328,0.765l0,0c-0.107,0-0.107,0-0.217,0l0,0
		C80.535,25.895,80.318,25.785,80.209,25.567z M161.648,26.986c-0.328-0.109-0.438-0.437-0.328-0.764l0,0
		c0.107-0.327,0.438-0.437,0.764-0.327l0,0c0.328,0.109,0.438,0.436,0.328,0.764l0,0c-0.109,0.218-0.328,0.327-0.545,0.327l0,0
		C161.758,26.986,161.758,26.986,161.648,26.986z M77.26,26.877c-0.107-0.328,0-0.655,0.221-0.764l0,0
		c0.326-0.109,0.654,0,0.764,0.218l0,0c0.109,0.328,0,0.655-0.219,0.764l0,0c-0.109,0-0.219,0-0.219,0l0,0
		c-0.217,0-0.438-0.109-0.547-0.328V26.877z M74.205,28.296c-0.111-0.327,0-0.654,0.219-0.764l0,0c0.326-0.109,0.654,0,0.764,0.219
		l0,0c0.109,0.328,0,0.655-0.219,0.764l0,0c-0.109,0-0.219,0-0.219,0l0,0c-0.217,0-0.436-0.109-0.545-0.327V28.296z M71.258,29.825
		c-0.109-0.328,0-0.655,0.217-0.764l0,0c0.328-0.109,0.656,0,0.766,0.219l0,0c0.109,0.327,0,0.654-0.219,0.764l0,0
		c-0.109,0-0.219,0.109-0.219,0.109l0,0C71.584,30.152,71.367,30.043,71.258,29.825z M68.309,31.462
		c-0.107-0.328-0.107-0.655,0.219-0.765l0,0c0.328-0.218,0.656-0.109,0.764,0.218l0,0c0.219,0.328,0.109,0.655-0.217,0.765l0,0
		c-0.109,0-0.219,0.109-0.328,0.109l0,0c-0.219,0-0.438-0.109-0.545-0.327H68.309z M65.471,33.209
		c-0.217-0.218-0.109-0.655,0.219-0.764l0,0c0.219-0.218,0.654-0.109,0.764,0.218l0,0c0.219,0.328,0.111,0.655-0.219,0.765l0,0
		c-0.109,0.109-0.217,0.109-0.326,0.109l0,0C65.689,33.536,65.58,33.427,65.471,33.209z M62.633,35.064
		c-0.219-0.218-0.109-0.655,0.109-0.764l0,0c0.217-0.218,0.656-0.109,0.764,0.109l0,0c0.217,0.328,0.109,0.655-0.107,0.764l0,0
		c-0.109,0.109-0.221,0.109-0.33,0.109l0,0C62.852,35.283,62.742,35.174,62.633,35.064z M59.902,37.029
		c-0.217-0.218-0.109-0.654,0.111-0.764l0,0l0,0l0,0c0.219-0.218,0.654-0.109,0.764,0.11l0,0c0.219,0.218,0.109,0.654-0.109,0.764
		l0,0c-0.109,0.109-0.219,0.109-0.328,0.109l0,0C60.123,37.248,60.014,37.139,59.902,37.029z M57.283,38.995
		c-0.217-0.219-0.109-0.655,0.109-0.765l0,0c0.219-0.217,0.656-0.108,0.764,0.11l0,0c0.219,0.218,0.109,0.655-0.107,0.764l0,0
		c-0.111,0.109-0.219,0.109-0.328,0.109l0,0C57.502,39.213,57.393,39.104,57.283,38.995z M183.699,40.523L183.699,40.523
		c-0.219-0.218-0.326-0.545-0.109-0.764l0,0c0.219-0.219,0.547-0.328,0.766-0.11l0,0c0.217,0.218,0.326,0.546,0.107,0.765l0,0
		c-0.107,0.109-0.326,0.218-0.436,0.218l0,0C183.918,40.632,183.809,40.632,183.699,40.523z M54.664,41.069
		c-0.219-0.218-0.219-0.655,0.109-0.764l0,0c0.217-0.218,0.654-0.218,0.766,0.109l0,0c0.217,0.218,0.217,0.655-0.111,0.764l0,0
		c-0.109,0.109-0.219,0.109-0.328,0.109l0,0C54.883,41.287,54.773,41.178,54.664,41.069z M186.211,42.597L186.211,42.597
		c-0.219-0.217-0.328-0.545-0.111-0.764l0,0c0.221-0.219,0.547-0.219,0.766-0.109l0,0c0.219,0.218,0.219,0.545,0.109,0.764l0,0
		c-0.109,0.108-0.328,0.218-0.436,0.218l0,0C186.43,42.707,186.32,42.707,186.211,42.597z M52.152,43.252
		c-0.219-0.218-0.219-0.655,0-0.764l0,0c0.219-0.219,0.656-0.219,0.766,0l0,0c0.219,0.218,0.219,0.545,0,0.764l0,0
		c-0.109,0.11-0.221,0.11-0.328,0.11l0,0c-0.109,0-0.326-0.11-0.438-0.219V43.252z M188.721,44.89c-0.219-0.218-0.219-0.545,0-0.764
		l0,0c0.221-0.219,0.545-0.219,0.766,0l0,0c0.219,0.218,0.219,0.545,0,0.764l0,0c-0.111,0.109-0.221,0.219-0.438,0.219l0,0
		c-0.107,0-0.328-0.11-0.328-0.11V44.89z M49.752,45.545c-0.219-0.218-0.219-0.546,0-0.764l0,0c0.219-0.218,0.545-0.218,0.764,0l0,0
		c0.219,0.218,0.219,0.546,0,0.764l0,0c-0.109,0.109-0.219,0.109-0.438,0.109l0,0c-0.107,0-0.326-0.109-0.436-0.218L49.752,45.545z
		 M191.232,47.182c-0.219-0.219-0.219-0.546,0-0.764l0,0c0.219-0.218,0.545-0.218,0.764,0l0,0c0.219,0.218,0.219,0.545,0,0.764l0,0
		c-0.109,0.109-0.219,0.218-0.436,0.218l0,0c-0.109,0-0.328-0.109-0.438-0.218H191.232z M47.459,47.837
		c-0.219-0.219-0.219-0.546,0-0.764l0,0c0.219-0.219,0.545-0.219,0.764,0l0,0c0.219,0.218,0.219,0.545,0,0.764l0,0
		c-0.109,0.109-0.219,0.218-0.436,0.218l0,0c-0.109,0-0.328-0.109-0.438-0.218H47.459z M193.635,49.475
		c-0.219-0.219-0.219-0.546,0-0.764l0,0c0.217-0.219,0.545-0.219,0.764,0l0,0c0.219,0.218,0.219,0.545,0,0.764l0,0
		c-0.109,0.108-0.219,0.108-0.438,0.108l0,0c-0.109,0-0.326-0.108-0.436-0.218L193.635,49.475z M45.168,50.239
		c-0.221-0.218-0.221-0.545,0-0.764l0,0c0.217-0.219,0.545-0.219,0.764,0l0,0c0.217,0.218,0.217,0.545,0,0.764l0,0
		c-0.109,0.11-0.33,0.219-0.439,0.219l0,0c-0.107,0-0.324,0-0.324-0.109V50.239z M195.926,51.985c-0.219-0.218-0.219-0.545,0-0.764
		l0,0c0.219-0.218,0.656-0.218,0.766,0l0,0l0,0l0,0c0.217,0.219,0.217,0.546,0,0.764l0,0c-0.109,0.11-0.221,0.11-0.438,0.11l0,0
		c-0.109,0-0.328-0.11-0.438-0.219L195.926,51.985z M42.982,52.75c-0.217-0.218-0.326-0.545-0.109-0.764l0,0
		c0.219-0.218,0.547-0.218,0.764-0.109l0,0c0.221,0.219,0.221,0.546,0,0.764l0,0c-0.107,0.109-0.217,0.218-0.436,0.218l0,0
		c-0.109,0-0.219,0-0.328-0.109H42.982z M198.109,54.496c-0.217-0.218-0.217-0.546,0.109-0.764l0,0
		c0.219-0.218,0.545-0.218,0.764,0.11l0,0c0.219,0.218,0.219,0.545-0.109,0.764l0,0c-0.109,0.11-0.217,0.11-0.326,0.11l0,0
		C198.328,54.715,198.219,54.605,198.109,54.496z M40.799,55.37c-0.217-0.218-0.328-0.545-0.109-0.764l0,0
		c0.219-0.218,0.547-0.327,0.766-0.109l0,0c0.217,0.219,0.326,0.546,0.107,0.765l0,0c-0.107,0.109-0.326,0.219-0.436,0.219l0,0
		C41.018,55.479,40.908,55.479,40.799,55.37z M200.184,57.116c-0.217-0.218-0.107-0.654,0.109-0.764l0,0
		c0.219-0.218,0.654-0.109,0.764,0.11l0,0c0.219,0.218,0.109,0.654-0.109,0.764l0,0c-0.107,0.109-0.217,0.109-0.326,0.109l0,0
		C200.402,57.334,200.293,57.226,200.184,57.116z M38.727,57.99c-0.221-0.218-0.33-0.545-0.109-0.764l0,0
		c0.219-0.218,0.545-0.328,0.764-0.109l0,0c0.219,0.218,0.326,0.546,0.109,0.765l0,0c-0.109,0.109-0.328,0.218-0.438,0.218l0,0
		C38.943,58.099,38.836,58.099,38.727,57.99z M202.148,59.736c-0.219-0.218-0.109-0.654,0.109-0.764l0,0
		c0.219-0.218,0.654-0.109,0.764,0.11l0,0c0.221,0.218,0.111,0.654-0.109,0.764l0,0c-0.109,0.108-0.219,0.108-0.326,0.108l0,0
		C202.367,59.955,202.258,59.846,202.148,59.736z M36.76,60.61c-0.219-0.218-0.326-0.546-0.109-0.764l0,0
		c0.219-0.219,0.547-0.328,0.766-0.11l0,0c0.217,0.218,0.326,0.546,0.107,0.764l0,0c-0.107,0.218-0.326,0.218-0.436,0.218l0,0
		C36.979,60.719,36.869,60.719,36.76,60.61z M204.113,62.356c-0.217-0.218-0.107-0.655,0.109-0.764l0,0
		c0.219-0.218,0.654-0.109,0.764,0.109l0,0c0.219,0.219,0.109,0.655-0.109,0.764l0,0c-0.107,0.11-0.217,0.11-0.326,0.11l0,0
		C204.332,62.575,204.223,62.465,204.113,62.356z M34.904,63.339c-0.219-0.218-0.328-0.545-0.107-0.764l0,0
		c0.217-0.219,0.545-0.328,0.764-0.11l0,0c0.217,0.218,0.326,0.546,0.109,0.764l0,0c-0.109,0.219-0.328,0.219-0.439,0.219l0,0
		C35.121,63.449,35.014,63.449,34.904,63.339z M205.969,65.085c-0.217-0.218-0.107-0.655,0.219-0.764l0,0
		c0.221-0.218,0.654-0.108,0.766,0.219l0,0c0.219,0.218,0.109,0.655-0.221,0.764l0,0c-0.107,0.109-0.217,0.109-0.324,0.109l0,0
		C206.188,65.414,206.078,65.304,205.969,65.085z M33.158,66.068c-0.328-0.218-0.328-0.545-0.219-0.764l0,0
		c0.219-0.219,0.547-0.328,0.764-0.219l0,0c0.219,0.219,0.328,0.546,0.219,0.764l0,0c-0.109,0.218-0.328,0.218-0.436,0.218l0,0
		c-0.111,0-0.219,0-0.328-0.109V66.068z M207.717,67.815c-0.219-0.328-0.109-0.655,0.219-0.765l0,0
		c0.217-0.218,0.654-0.108,0.764,0.219l0,0c0.219,0.327,0.109,0.655-0.219,0.764l0,0c-0.109,0.109-0.219,0.109-0.328,0.109l0,0
		C207.936,68.143,207.826,68.033,207.717,67.815z M31.41,68.907c-0.326-0.219-0.326-0.546-0.219-0.764l0,0
		c0.109-0.327,0.547-0.327,0.764-0.218l0,0c0.221,0.218,0.33,0.545,0.221,0.764l0,0c-0.109,0.219-0.328,0.328-0.545,0.328l0,0
		c-0.109,0-0.221,0-0.33-0.109H31.41z M209.354,70.763c-0.109-0.328-0.109-0.655,0.219-0.765l0,0c0.326-0.109,0.656,0,0.766,0.218
		l0,0c0.107,0.328,0.107,0.655-0.221,0.765l0,0c-0.109,0-0.219,0.109-0.326,0.109l0,0c-0.219,0-0.438-0.109-0.547-0.327H209.354z
		 M29.773,71.854c-0.328-0.109-0.328-0.546-0.219-0.764l0,0c0.109-0.327,0.547-0.327,0.766-0.218l0,0
		c0.326,0.109,0.326,0.437,0.217,0.764l0,0c-0.109,0.218-0.326,0.327-0.545,0.327l0,0C29.883,71.963,29.773,71.963,29.773,71.854z
		 M210.883,73.71c-0.109-0.328,0-0.655,0.219-0.764l0,0c0.326-0.109,0.654,0,0.764,0.218l0,0c0.109,0.328,0,0.655-0.219,0.765l0,0
		c-0.109,0-0.219,0.108-0.219,0.108l0,0C211.209,74.037,210.992,73.929,210.883,73.71z M28.246,74.911
		c-0.328-0.11-0.438-0.437-0.221-0.764l0,0c0.109-0.328,0.439-0.437,0.766-0.218l0,0c0.328,0.108,0.438,0.436,0.219,0.764l0,0
		c-0.109,0.219-0.328,0.328-0.545,0.328l0,0C28.355,75.02,28.246,75.02,28.246,74.911z M212.41,76.766
		c-0.109-0.217,0-0.654,0.328-0.764l0,0c0.326-0.109,0.654,0,0.766,0.328l0,0c0.107,0.328,0,0.655-0.33,0.764l0,0
		c-0.109,0-0.109,0.109-0.217,0.109l0,0c-0.219,0-0.438-0.109-0.547-0.327V76.766z M26.826,77.967
		c-0.328-0.109-0.438-0.437-0.328-0.764l0,0c0.109-0.327,0.438-0.437,0.764-0.327l0,0c0.328,0.109,0.439,0.437,0.328,0.764l0,0
		c-0.109,0.218-0.328,0.327-0.545,0.327l0,0c-0.109,0-0.219,0-0.219-0.109V77.967z M213.721,79.823
		c-0.109-0.327,0-0.655,0.328-0.764l0,0c0.326-0.109,0.654,0,0.764,0.328l0,0c0.109,0.328,0,0.655-0.328,0.764l0,0
		c-0.109,0-0.109,0-0.217,0l0,0C214.049,80.15,213.828,80.042,213.721,79.823z M25.516,81.133c-0.326-0.108-0.436-0.436-0.326-0.764
		l0,0c0.109-0.328,0.436-0.437,0.764-0.328l0,0c0.326,0.109,0.436,0.437,0.326,0.764l0,0c-0.109,0.219-0.326,0.327-0.545,0.327l0,0
		C25.625,81.133,25.625,81.133,25.516,81.133z M215.031,82.989c-0.109-0.327,0-0.655,0.326-0.764l0,0
		c0.328-0.109,0.656,0,0.766,0.327l0,0c0.107,0.328,0,0.655-0.328,0.764l0,0c-0.109,0-0.109,0-0.219,0l0,0
		C215.357,83.316,215.141,83.208,215.031,82.989z M24.314,84.299c-0.326-0.109-0.436-0.436-0.326-0.764l0,0
		c0.107-0.327,0.438-0.437,0.764-0.327l0,0c0.328,0.109,0.438,0.437,0.328,0.764l0,0c-0.109,0.218-0.328,0.327-0.545,0.327l0,0
		C24.426,84.299,24.426,84.299,24.314,84.299z M216.123,86.155c-0.109-0.327,0.107-0.655,0.326-0.764l0,0
		c0.328-0.109,0.654,0,0.764,0.327l0,0c0.111,0.328,0,0.655-0.326,0.765l0,0c-0.109,0-0.109,0-0.219,0l0,0
		C216.449,86.483,216.23,86.374,216.123,86.155z M23.115,87.465c-0.328-0.109-0.438-0.436-0.328-0.764l0,0
		c0.109-0.327,0.436-0.437,0.764-0.327l0,0c0.328,0.109,0.438,0.437,0.328,0.764l0,0c-0.109,0.219-0.328,0.328-0.547,0.328l0,0
		C23.223,87.465,23.223,87.465,23.115,87.465z M217.104,89.212c-0.109-0.328,0.109-0.655,0.33-0.764l0,0
		c0.326-0.109,0.654,0.109,0.764,0.327l0,0c0.109,0.328-0.109,0.655-0.328,0.764l0,0c-0.109,0-0.109,0-0.219,0l0,0
		c-0.217,0-0.438-0.109-0.547-0.437V89.212z M22.023,90.63c-0.328-0.109-0.438-0.436-0.328-0.764l0,0
		c0.109-0.327,0.438-0.436,0.764-0.327l0,0c0.328,0.11,0.438,0.437,0.328,0.764l0,0c-0.109,0.218-0.328,0.437-0.547,0.437l0,0
		c-0.107,0-0.107,0-0.217,0V90.63z M217.979,92.378c-0.109-0.328,0.109-0.655,0.328-0.764l0,0c0.326-0.11,0.654,0.109,0.764,0.436
		l0,0c0.107,0.328-0.109,0.655-0.438,0.765l0,0c-0.109,0-0.109,0-0.109,0l0,0C218.307,92.814,218.088,92.596,217.979,92.378z
		 M21.039,93.797c-0.326-0.109-0.434-0.437-0.434-0.655l0,0c0.107-0.327,0.434-0.437,0.654-0.437l0,0
		c0.326,0.109,0.436,0.437,0.436,0.655l0,0c-0.109,0.218-0.326,0.437-0.545,0.437l0,0C21.039,93.797,21.039,93.797,21.039,93.797z
		 M218.742,95.543c-0.109-0.327,0.109-0.655,0.436-0.655l0,0c0.328-0.109,0.656,0.109,0.656,0.437l0,0
		c0.109,0.327-0.109,0.655-0.438,0.655l0,0h-0.107l0,0C219.07,95.98,218.852,95.762,218.742,95.543z M20.166,96.963
		c-0.326-0.11-0.545-0.328-0.436-0.655l0,0c0.109-0.327,0.326-0.545,0.654-0.437l0,0c0.328,0.11,0.545,0.328,0.438,0.655l0,0
		c-0.109,0.219-0.328,0.437-0.547,0.437l0,0H20.166z M219.396,98.709c-0.107-0.327,0.109-0.655,0.438-0.655l0,0
		c0.326-0.109,0.654,0.109,0.654,0.437l0,0c0.111,0.328-0.109,0.655-0.436,0.655l0,0h-0.109l0,0
		C219.725,99.146,219.396,98.928,219.396,98.709z M19.402,100.237c-0.328-0.109-0.545-0.327-0.436-0.654l0,0
		c0.107-0.328,0.326-0.546,0.654-0.437l0,0c0.328,0.109,0.545,0.328,0.436,0.655l0,0c-0.107,0.218-0.326,0.437-0.545,0.437l0,0
		H19.402z M220.053,101.984L220.053,101.984c0-0.327,0.107-0.654,0.436-0.654l0,0c0.328-0.11,0.545,0.109,0.656,0.436l0,0
		c0.109,0.328-0.111,0.655-0.436,0.655l0,0H220.6l0,0C220.27,102.421,220.053,102.203,220.053,101.984z M18.857,103.513
		c-0.328-0.109-0.547-0.328-0.438-0.655l0,0c0-0.327,0.328-0.545,0.654-0.437l0,0c0.328,0,0.547,0.328,0.438,0.655l0,0
		c0,0.218-0.328,0.437-0.545,0.437l0,0H18.857z M220.6,105.259c0-0.328,0.217-0.655,0.434-0.655l0,0c0.33,0,0.547,0.219,0.656,0.437
		l0,0c0,0.327-0.217,0.545-0.436,0.655l0,0h-0.109l0,0C220.816,105.696,220.6,105.478,220.6,105.259z M18.42,106.788
		c-0.326,0-0.545-0.327-0.436-0.655l0,0c0-0.327,0.326-0.546,0.654-0.436l0,0c0.328,0,0.545,0.327,0.436,0.654l0,0
		c0,0.328-0.326,0.546-0.545,0.546l0,0c0,0,0,0-0.109,0V106.788z M221.033,108.534c0-0.327,0.221-0.546,0.547-0.655l0,0
		c0.328,0,0.547,0.218,0.656,0.546l0,0c0,0.327-0.219,0.545-0.547,0.655l0,0c0,0,0,0-0.109,0l0,0
		C221.254,109.081,221.033,108.862,221.033,108.534z M18.094,110.172c-0.33,0-0.547-0.327-0.547-0.655l0,0
		c0-0.327,0.328-0.546,0.656-0.546l0,0c0.326,0,0.545,0.328,0.545,0.655l0,0c0,0.327-0.328,0.546-0.545,0.546l0,0l0,0H18.094z
		 M221.363,111.918L221.363,111.918c0-0.328,0.217-0.546,0.545-0.655l0,0c0.328,0,0.545,0.219,0.654,0.546l0,0l0,0l0,0
		c0,0.327-0.219,0.545-0.545,0.654l0,0l0,0l0,0c-0.328,0-0.545-0.218-0.545-0.545H221.363z M17.764,113.556
		c-0.326,0-0.545-0.328-0.545-0.655l0,0c0-0.327,0.328-0.546,0.656-0.546l0,0c0.328,0,0.545,0.328,0.545,0.655l0,0
		c0,0.327-0.326,0.546-0.545,0.546l0,0l0,0H17.764z M221.58,115.303c0-0.328,0.219-0.546,0.547-0.655l0,0
		c0.326,0,0.545,0.218,0.654,0.546l0,0c0,0.327-0.219,0.545-0.545,0.545l0,0l0,0l0,0c-0.328,0-0.547-0.218-0.547-0.545
		L221.58,115.303z M17.654,116.94c-0.324,0-0.545-0.328-0.545-0.546l0,0c0-0.328,0.328-0.545,0.545-0.545l0,0
		c0.33,0,0.549,0.327,0.549,0.545l0,0C18.203,116.722,17.984,116.94,17.654,116.94L17.654,116.94z M17,119.669
		c0-0.328,0.219-0.546,0.547-0.546l0,0c0.328,0,0.547,0.218,0.547,0.546l0,0c0,0.328-0.219,0.546-0.547,0.546l0,0
		C17.219,120.216,17,119.997,17,119.669z M221.689,121.853L221.689,121.853z M17.109,122.945c0-0.328,0.221-0.547,0.545-0.547l0,0
		c0.33,0,0.549,0.219,0.549,0.547l0,0c0,0.326-0.219,0.545-0.549,0.545l0,0l0,0l0,0C17.33,123.49,17.109,123.271,17.109,122.945z
		 M222.127,125.783c-0.328,0-0.547-0.328-0.547-0.547l0,0c0-0.326,0.328-0.545,0.547-0.545l0,0c0.326,0,0.545,0.327,0.545,0.545l0,0
		C222.672,125.564,222.344,125.783,222.127,125.783L222.127,125.783L222.127,125.783z M17.219,126.328
		c0-0.327,0.219-0.545,0.545-0.545l0,0c0.33,0,0.547,0.218,0.547,0.545l0,0c0,0.328-0.217,0.547-0.547,0.547l0,0l0,0l0,0
		C17.438,126.875,17.219,126.656,17.219,126.328z M221.908,129.058c-0.328,0-0.545-0.327-0.545-0.655l0,0
		c0-0.327,0.326-0.545,0.654-0.545l0,0c0.326,0,0.545,0.326,0.545,0.654l0,0c0,0.328-0.326,0.546-0.545,0.546l0,0l0,0H221.908z
		 M17.438,129.604c0-0.327,0.217-0.546,0.547-0.654l0,0c0.326,0,0.545,0.217,0.654,0.545l0,0c0,0.328-0.219,0.546-0.545,0.656l0,0
		l0,0l0,0c-0.33,0-0.547-0.219-0.547-0.547H17.438z M221.473,132.332c-0.328,0-0.547-0.326-0.547-0.654l0,0
		c0-0.327,0.328-0.547,0.654-0.547l0,0c0.328,0,0.547,0.328,0.438,0.656l0,0C222.018,132.115,221.689,132.332,221.473,132.332
		L221.473,132.332c0,0,0,0-0.109,0H221.473z M17.764,132.988L17.764,132.988L17.764,132.988c0-0.328,0.221-0.547,0.547-0.656l0,0
		c0.328,0,0.547,0.219,0.656,0.438l0,0c0,0.328-0.219,0.546-0.547,0.654l0,0c0,0,0,0-0.109,0l0,0
		C18.094,133.424,17.764,133.206,17.764,132.988z M221.033,135.717c-0.324,0-0.545-0.327-0.434-0.654l0,0
		c0-0.328,0.326-0.546,0.654-0.438l0,0c0.326,0,0.545,0.328,0.436,0.656l0,0c0,0.326-0.326,0.436-0.545,0.436l0,0H221.033z
		 M18.311,136.372L18.311,136.372L18.311,136.372c0-0.327,0.219-0.546,0.438-0.655l0,0c0.326,0,0.545,0.219,0.654,0.437l0,0
		c0.109,0.328-0.109,0.546-0.436,0.655l0,0h-0.109l0,0C18.529,136.809,18.311,136.59,18.311,136.372z M220.488,138.992
		c-0.328-0.109-0.545-0.327-0.436-0.655l0,0c0.107-0.327,0.326-0.546,0.656-0.437l0,0c0.324,0.109,0.545,0.328,0.436,0.654l0,0
		c-0.111,0.328-0.328,0.438-0.545,0.438l0,0H220.488z M18.857,139.647c-0.109-0.328,0.109-0.655,0.436-0.655l0,0
		c0.328,0,0.656,0.109,0.656,0.437l0,0c0.107,0.327-0.109,0.655-0.438,0.655l0,0h-0.109l0,0
		C19.074,140.084,18.857,139.865,18.857,139.647z M219.834,142.267c-0.328-0.108-0.545-0.327-0.438-0.654l0,0
		c0.109-0.328,0.328-0.546,0.656-0.437l0,0c0.326,0.108,0.547,0.326,0.436,0.654l0,0c-0.109,0.219-0.328,0.437-0.545,0.437l0,0
		H219.834z M19.512,142.922c-0.109-0.327,0.109-0.655,0.438-0.655l0,0c0.326-0.108,0.656,0.11,0.656,0.437l0,0
		c0.107,0.328-0.111,0.656-0.439,0.656l0,0h-0.109l0,0C19.73,143.359,19.512,143.141,19.512,142.922z M218.961,145.542
		c-0.328-0.109-0.438-0.327-0.438-0.655l0,0c0.109-0.327,0.328-0.436,0.654-0.436l0,0c0.328,0.108,0.547,0.436,0.438,0.654l0,0
		c-0.109,0.219-0.326,0.437-0.545,0.437l0,0H218.961z M20.275,146.197c-0.109-0.328,0.109-0.655,0.438-0.655l0,0
		c0.326-0.109,0.656,0.108,0.656,0.437l0,0c0.107,0.328-0.109,0.654-0.439,0.654l0,0h-0.107l0,0
		C20.605,146.633,20.385,146.416,20.275,146.197z M218.088,148.708c-0.328-0.11-0.438-0.437-0.438-0.655l0,0
		c0.109-0.327,0.438-0.436,0.764-0.436l0,0c0.328,0.108,0.438,0.436,0.438,0.764l0,0c-0.109,0.217-0.328,0.437-0.545,0.437l0,0
		c-0.109,0-0.109,0-0.219,0V148.708z M21.15,149.363c-0.111-0.328,0.109-0.655,0.326-0.766l0,0c0.328-0.108,0.656,0.11,0.764,0.328
		l0,0c0.109,0.328-0.107,0.656-0.326,0.765l0,0c-0.109,0-0.109,0-0.219,0l0,0c-0.219,0-0.436-0.218-0.545-0.437V149.363z
		 M217.104,151.873c-0.326-0.108-0.436-0.436-0.326-0.764l0,0c0.109-0.327,0.436-0.437,0.766-0.327l0,0
		c0.326,0.108,0.436,0.437,0.326,0.765l0,0c-0.109,0.218-0.326,0.437-0.545,0.437l0,0c-0.111,0-0.111,0-0.221,0V151.873z
		 M22.133,152.529c-0.109-0.328,0-0.656,0.326-0.765l0,0c0.328-0.109,0.656,0.108,0.764,0.327l0,0
		c0.109,0.328-0.107,0.656-0.326,0.764l0,0c-0.109,0-0.109,0-0.219,0l0,0C22.459,152.855,22.24,152.748,22.133,152.529z
		 M216.014,155.039c-0.328-0.108-0.438-0.437-0.328-0.764l0,0c0.109-0.327,0.438-0.437,0.764-0.327l0,0
		c0.328,0.108,0.438,0.437,0.328,0.765l0,0c-0.109,0.218-0.328,0.326-0.547,0.326l0,0
		C216.123,155.039,216.123,155.039,216.014,155.039z M23.332,155.695L23.332,155.695c-0.109-0.328,0-0.656,0.328-0.765l0,0
		c0.328-0.109,0.654,0,0.766,0.327l0,0c0.109,0.327,0,0.655-0.33,0.764l0,0c-0.107,0-0.107,0-0.217,0l0,0
		C23.66,156.021,23.441,155.913,23.332,155.695z M214.812,158.097c-0.328-0.11-0.438-0.437-0.328-0.765l0,0
		c0.109-0.328,0.438-0.437,0.764-0.328l0,0c0.328,0.11,0.438,0.438,0.328,0.765l0,0c-0.109,0.218-0.328,0.328-0.545,0.328l0,0
		C214.922,158.097,214.922,158.097,214.812,158.097z M24.535,158.751c-0.109-0.327,0-0.654,0.324-0.765l0,0
		c0.33-0.108,0.656,0,0.766,0.328l0,0c0.109,0.328,0,0.654-0.326,0.765l0,0c-0.109,0-0.109,0-0.219,0l0,0
		C24.859,159.079,24.643,158.969,24.535,158.751z M213.611,161.152c-0.328-0.108-0.438-0.436-0.328-0.764l0,0
		c0.109-0.327,0.438-0.438,0.766-0.327l0,0c0.326,0.108,0.436,0.437,0.326,0.765l0,0c-0.107,0.218-0.326,0.326-0.547,0.326l0,0
		C213.721,161.152,213.721,161.152,213.611,161.152z M25.844,161.809c-0.109-0.328,0-0.656,0.326-0.765l0,0
		c0.328-0.109,0.656,0,0.766,0.327l0,0c0.109,0.328,0,0.655-0.328,0.764l0,0c-0.109,0-0.109,0-0.219,0l0,0
		C26.17,162.135,25.953,162.026,25.844,161.809z M212.193,164.21c-0.328-0.11-0.438-0.437-0.328-0.765l0,0
		c0.109-0.328,0.436-0.437,0.764-0.328l0,0c0.328,0.109,0.436,0.438,0.219,0.766l0,0c-0.109,0.217-0.328,0.327-0.547,0.327l0,0
		c-0.107,0-0.107,0-0.219,0H212.193z M27.262,164.865c-0.107-0.328,0-0.655,0.328-0.766l0,0c0.219-0.108,0.656,0,0.766,0.328l0,0
		c0.109,0.328,0,0.656-0.221,0.765l0,0c-0.109,0-0.217,0.108-0.217,0.108l0,0c-0.217,0-0.438-0.108-0.547-0.327L27.262,164.865z
		 M210.662,167.157c-0.324-0.108-0.434-0.437-0.217-0.765l0,0c0.109-0.326,0.438-0.326,0.764-0.218l0,0
		c0.219,0.109,0.438,0.437,0.219,0.765l0,0c-0.109,0.218-0.326,0.326-0.545,0.326l0,0
		C210.773,167.266,210.662,167.266,210.662,167.157z M28.791,167.812L28.791,167.812L28.791,167.812
		c-0.109-0.327,0-0.655,0.219-0.764l0,0c0.328-0.109,0.654,0,0.764,0.217l0,0c0.109,0.328,0,0.656-0.219,0.766l0,0
		c-0.109,0-0.217,0.108-0.326,0.108l0,0c-0.219,0-0.438-0.108-0.547-0.327H28.791z M209.135,170.104
		c-0.326-0.108-0.326-0.437-0.217-0.765l0,0c0.109-0.326,0.545-0.326,0.764-0.218l0,0c0.326,0.109,0.326,0.546,0.217,0.765l0,0
		c-0.107,0.218-0.326,0.328-0.545,0.328l0,0c-0.109,0-0.219,0-0.326-0.11H209.135z M30.428,170.76
		c-0.107-0.219-0.107-0.655,0.219-0.764l0,0c0.328-0.109,0.654-0.109,0.764,0.219l0,0c0.221,0.326,0.111,0.654-0.219,0.764l0,0
		c-0.107,0-0.217,0.108-0.217,0.108l0,0C30.756,171.087,30.537,170.979,30.428,170.76z M207.389,172.943
		c-0.217-0.219-0.326-0.546-0.217-0.764l0,0c0.107-0.328,0.545-0.328,0.764-0.219l0,0c0.326,0.219,0.326,0.545,0.217,0.764l0,0
		c-0.109,0.219-0.326,0.327-0.436,0.327l0,0C207.607,173.052,207.498,173.052,207.389,172.943z M32.066,173.598
		c-0.219-0.327-0.111-0.654,0.219-0.764l0,0c0.219-0.109,0.654-0.109,0.764,0.218l0,0c0.109,0.219,0.109,0.655-0.219,0.765l0,0
		c-0.109,0-0.219,0.109-0.326,0.109l0,0c-0.219,0-0.328-0.109-0.438-0.219V173.598z M205.533,175.781
		c-0.219-0.218-0.328-0.546-0.219-0.764l0,0c0.219-0.219,0.547-0.328,0.764-0.219l0,0c0.219,0.219,0.33,0.546,0.219,0.765l0,0
		c-0.109,0.218-0.328,0.218-0.436,0.218l0,0c-0.109,0-0.219,0-0.328-0.109V175.781z M33.812,176.436L33.812,176.436L33.812,176.436
		c-0.219-0.326-0.109-0.654,0.219-0.764l0,0c0.219-0.219,0.654-0.108,0.766,0.219l0,0c0.217,0.219,0.107,0.655-0.221,0.764l0,0
		c-0.109,0.109-0.219,0.109-0.326,0.109l0,0c-0.219,0-0.328-0.109-0.438-0.218V176.436z M203.678,178.511
		c-0.219-0.218-0.328-0.546-0.111-0.765l0,0c0.221-0.218,0.547-0.328,0.766-0.109l0,0c0.219,0.219,0.328,0.547,0.109,0.764l0,0
		c-0.109,0.11-0.328,0.219-0.436,0.219l0,0C203.896,178.619,203.787,178.619,203.678,178.511z M35.67,179.166L35.67,179.166
		c-0.219-0.219-0.109-0.655,0.107-0.766l0,0c0.219-0.217,0.656-0.107,0.764,0.11l0,0c0.219,0.218,0.109,0.655-0.107,0.765l0,0
		c-0.109,0.109-0.219,0.109-0.328,0.109l0,0C35.887,179.385,35.777,179.275,35.67,179.166z M201.711,181.24
		c-0.217-0.219-0.326-0.547-0.107-0.765l0,0c0.219-0.218,0.545-0.327,0.764-0.109l0,0c0.219,0.219,0.326,0.546,0.109,0.765l0,0
		c-0.109,0.109-0.328,0.219-0.438,0.219l0,0C201.93,181.35,201.822,181.35,201.711,181.24z M37.633,181.895
		c-0.217-0.219-0.109-0.654,0.109-0.764l0,0c0.219-0.219,0.654-0.109,0.764,0.109l0,0c0.221,0.218,0.111,0.654-0.109,0.764l0,0
		c-0.107,0.109-0.217,0.109-0.324,0.109l0,0C37.852,182.113,37.742,182.004,37.633,181.895z M199.637,183.859
		c-0.217-0.218-0.326-0.545-0.109-0.764l0,0c0.219-0.219,0.549-0.328,0.766-0.109l0,0c0.219,0.219,0.328,0.547,0.109,0.765l0,0
		c-0.109,0.108-0.219,0.218-0.436,0.218l0,0C199.857,183.969,199.746,183.969,199.637,183.859z M39.707,184.516
		c-0.217-0.219-0.107-0.547,0.109-0.765l0,0c0.219-0.218,0.547-0.218,0.766,0.108l0,0c0.217,0.219,0.217,0.656-0.111,0.765l0,0
		c-0.107,0.108-0.217,0.108-0.326,0.108l0,0C39.926,184.732,39.816,184.624,39.707,184.516z M197.455,186.48
		c-0.219-0.219-0.328-0.547-0.109-0.765l0,0c0.219-0.218,0.547-0.327,0.764-0.109l0,0c0.219,0.218,0.328,0.546,0.109,0.765l0,0
		c-0.109,0.109-0.326,0.218-0.438,0.218l0,0C197.674,186.589,197.564,186.589,197.455,186.48z M41.781,187.135
		c-0.219-0.218-0.219-0.546,0.111-0.764l0,0c0.217-0.219,0.545-0.219,0.764,0.109l0,0c0.217,0.218,0.217,0.545-0.109,0.764l0,0
		c-0.109,0.109-0.221,0.109-0.328,0.109l0,0C42.109,187.354,41.893,187.244,41.781,187.135z M195.162,188.99
		c-0.219-0.219-0.219-0.545,0-0.764l0,0c0.219-0.219,0.545-0.219,0.764,0l0,0c0.219,0.219,0.219,0.545,0,0.764l0,0
		c-0.109,0.109-0.328,0.219-0.436,0.219l0,0c-0.109,0-0.328,0-0.328-0.109V188.99z M43.965,189.646L43.965,189.646
		c-0.219-0.219-0.219-0.547,0-0.765l0,0c0.219-0.218,0.547-0.218,0.764,0l0,0c0.219,0.218,0.219,0.546,0,0.765l0,0
		c-0.107,0.107-0.217,0.107-0.326,0.107l0,0c-0.109,0-0.328-0.107-0.438-0.218V189.646z M192.871,191.393
		c-0.221-0.219-0.221-0.546,0-0.764l0,0c0.217-0.219,0.545-0.219,0.764,0l0,0c0.217,0.218,0.217,0.545,0,0.764l0,0
		c-0.109,0.108-0.219,0.219-0.439,0.219l0,0c-0.107,0-0.324-0.11-0.434-0.219H192.871z M46.258,192.047
		c-0.219-0.218-0.219-0.546,0-0.764l0,0c0.219-0.219,0.547-0.219,0.764,0l0,0c0.219,0.218,0.219,0.546,0,0.873l0,0
		c-0.109,0.109-0.217,0.109-0.436,0.109l0,0c-0.109,0-0.328,0-0.438-0.219H46.258z M190.469,193.686
		c-0.219-0.219-0.219-0.547,0-0.766l0,0c0.217-0.218,0.545-0.218,0.873,0l0,0c0.219,0.219,0.219,0.547,0,0.766l0,0
		c-0.109,0.108-0.219,0.217-0.438,0.217l0,0C190.795,193.902,190.576,193.794,190.469,193.686z M48.658,194.34
		c-0.217-0.219-0.217-0.546,0-0.764l0,0c0.219-0.219,0.547-0.219,0.764,0l0,0c0.221,0.218,0.221,0.545,0,0.764l0,0
		c-0.107,0.109-0.217,0.219-0.434,0.219l0,0c-0.111,0-0.221,0-0.438-0.109L48.658,194.34z M188.066,195.978
		c-0.219-0.218-0.219-0.546,0-0.765l0,0c0.219-0.218,0.545-0.218,0.764,0l0,0c0.219,0.219,0.219,0.547,0,0.765l0,0
		c-0.109,0.108-0.219,0.108-0.438,0.108l0,0c-0.107,0-0.326-0.108-0.436-0.219L188.066,195.978z M51.17,196.633
		c-0.217-0.219-0.217-0.547,0-0.766l0,0c0.219-0.217,0.547-0.217,0.764,0l0,0c0.219,0.219,0.219,0.547,0,0.766l0,0
		c-0.109,0.109-0.326,0.219-0.436,0.219l0,0c-0.109,0-0.328,0-0.328-0.109V196.633z M185.555,198.16
		c-0.219-0.218-0.219-0.545,0.111-0.764l0,0c0.217-0.219,0.545-0.219,0.764,0.109l0,0c0.217,0.219,0.217,0.654-0.109,0.764l0,0
		c-0.109,0.109-0.221,0.109-0.328,0.109l0,0C185.883,198.379,185.666,198.27,185.555,198.16z M53.682,198.816L53.682,198.816
		c-0.219-0.219-0.219-0.547-0.109-0.765l0,0c0.219-0.218,0.545-0.327,0.764-0.109l0,0c0.219,0.218,0.328,0.546,0.109,0.765l0,0
		c-0.109,0.109-0.328,0.218-0.438,0.218l0,0C53.9,198.925,53.791,198.925,53.682,198.816z M182.936,200.234
		c-0.219-0.217-0.219-0.654,0.109-0.764l0,0c0.219-0.219,0.654-0.109,0.764,0.109l0,0c0.219,0.219,0.109,0.654-0.109,0.764l0,0
		c-0.109,0.109-0.219,0.109-0.326,0.109l0,0C183.154,200.453,183.045,200.344,182.936,200.234z M56.193,200.89
		c-0.221-0.218-0.33-0.546-0.111-0.765l0,0c0.221-0.218,0.545-0.326,0.766-0.107l0,0c0.219,0.217,0.326,0.545,0.109,0.764l0,0
		C56.848,200.89,56.738,201,56.52,201l0,0C56.41,201,56.303,201,56.193,200.89z M180.207,202.2
		c-0.219-0.218-0.109-0.655,0.107-0.765l0,0c0.219-0.218,0.656-0.109,0.766,0.109l0,0c0.217,0.219,0.109,0.655-0.109,0.764l0,0
		c-0.109,0.109-0.219,0.109-0.328,0.109l0,0C180.426,202.418,180.314,202.309,180.207,202.2z M58.812,202.855
		c-0.219-0.219-0.328-0.547-0.109-0.765l0,0c0.219-0.219,0.545-0.327,0.766-0.108l0,0c0.217,0.218,0.324,0.545,0.107,0.764l0,0
		c-0.107,0.109-0.328,0.219-0.438,0.219l0,0C59.029,202.965,58.922,202.965,58.812,202.855z M177.477,204.056
		c-0.217-0.218-0.109-0.655,0.109-0.765l0,0c0.219-0.218,0.654-0.108,0.764,0.109l0,0c0.221,0.219,0.109,0.655-0.109,0.765l0,0
		c-0.109,0.108-0.217,0.108-0.326,0.108l0,0C177.695,204.273,177.586,204.165,177.477,204.056z M61.541,204.711
		c-0.328-0.219-0.328-0.546-0.109-0.764l0,0c0.219-0.219,0.547-0.328,0.764-0.109l0,0c0.219,0.218,0.328,0.546,0.109,0.764l0,0
		c-0.109,0.109-0.326,0.219-0.436,0.219l0,0C61.76,204.82,61.65,204.82,61.541,204.711z M174.639,205.912
		c-0.219-0.328-0.109-0.656,0.219-0.765l0,0c0.217-0.218,0.654-0.109,0.764,0.219l0,0c0.219,0.218,0.107,0.654-0.217,0.764l0,0
		c-0.109,0.108-0.221,0.108-0.33,0.108l0,0c-0.217,0-0.326-0.108-0.436-0.218V205.912z M64.271,206.566
		c-0.219-0.218-0.328-0.546-0.219-0.764l0,0c0.219-0.219,0.545-0.328,0.764-0.219l0,0c0.219,0.219,0.328,0.546,0.219,0.765l0,0
		c-0.109,0.218-0.328,0.218-0.438,0.218l0,0c-0.109,0-0.219,0-0.326-0.109V206.566z M171.799,207.658
		c-0.217-0.327-0.107-0.655,0.221-0.764l0,0c0.326-0.219,0.654-0.109,0.764,0.219l0,0c0.219,0.326,0.109,0.654-0.219,0.764l0,0
		c-0.109,0-0.219,0.109-0.326,0.109l0,0C172.02,207.986,171.908,207.877,171.799,207.658z M67.219,208.422
		c-0.33-0.218-0.33-0.545-0.221-0.764l0,0c0.221-0.327,0.547-0.327,0.766-0.219l0,0c0.219,0.219,0.328,0.547,0.219,0.765l0,0
		c-0.109,0.218-0.328,0.327-0.545,0.327l0,0c-0.109,0-0.219,0-0.328-0.109H67.219z M168.963,209.404
		c-0.109-0.326-0.109-0.654,0.217-0.764l0,0c0.219-0.219,0.656-0.109,0.764,0.219l0,0c0.111,0.219,0.111,0.654-0.217,0.764l0,0
		c-0.109,0-0.219,0.109-0.328,0.109l0,0C169.18,209.732,169.072,209.623,168.963,209.404z M70.164,210.169
		c-0.217-0.108-0.324-0.546-0.217-0.765l0,0c0.109-0.326,0.547-0.326,0.764-0.218l0,0c0.219,0.109,0.328,0.437,0.219,0.765l0,0
		c-0.109,0.218-0.326,0.327-0.545,0.327l0,0c-0.111,0-0.221,0-0.328-0.109H70.164z M166.014,211.043
		c-0.107-0.328,0-0.656,0.219-0.765l0,0c0.219-0.109,0.656,0,0.764,0.218l0,0c0.109,0.328,0,0.656-0.217,0.765l0,0l0,0l0,0
		c-0.109,0-0.219,0.108-0.219,0.108l0,0C166.342,211.369,166.123,211.261,166.014,211.043z M73.113,211.807L73.113,211.807
		c-0.328-0.109-0.438-0.438-0.219-0.764l0,0c0.109-0.328,0.436-0.328,0.766-0.219l0,0c0.326,0.109,0.434,0.437,0.217,0.764l0,0
		c-0.107,0.219-0.328,0.328-0.547,0.328l0,0C73.223,211.916,73.113,211.916,73.113,211.807z M163.066,212.57
		c-0.107-0.327,0-0.654,0.328-0.764l0,0c0.328-0.109,0.654,0,0.764,0.327l0,0c0.109,0.328,0,0.655-0.328,0.765l0,0
		c-0.107,0-0.217,0.109-0.217,0.109l0,0c-0.219,0-0.438-0.109-0.547-0.328V212.57z M76.17,213.334
		c-0.328-0.108-0.438-0.436-0.328-0.764l0,0c0.109-0.327,0.438-0.437,0.764-0.327l0,0c0.33,0.11,0.438,0.437,0.33,0.765l0,0
		c-0.111,0.218-0.33,0.326-0.547,0.326l0,0c-0.109,0-0.219,0-0.219-0.108V213.334z M160.01,213.99c-0.109-0.328,0-0.656,0.328-0.765
		l0,0c0.326-0.108,0.654,0,0.766,0.327l0,0c0.107,0.328,0,0.656-0.33,0.766l0,0l0,0l0,0c-0.109,0-0.109,0-0.217,0l0,0
		C160.338,214.318,160.119,214.209,160.01,213.99z M79.227,214.754c-0.328-0.109-0.436-0.436-0.328-0.764l0,0
		c0.109-0.328,0.438-0.438,0.764-0.328l0,0c0.328,0.109,0.438,0.438,0.328,0.765l0,0c-0.109,0.218-0.328,0.327-0.545,0.327l0,0
		C79.336,214.754,79.336,214.754,79.227,214.754z M156.953,215.301c-0.109-0.328,0-0.656,0.328-0.766l0,0
		c0.326-0.108,0.656,0,0.764,0.328l0,0c0.109,0.328,0,0.655-0.328,0.764l0,0c-0.109,0-0.109,0-0.219,0l0,0
		C157.281,215.627,157.062,215.519,156.953,215.301z M82.393,216.064c-0.328-0.109-0.438-0.438-0.328-0.764l0,0
		c0.109-0.328,0.438-0.438,0.764-0.328l0,0c0.328,0.109,0.438,0.437,0.328,0.764l0,0c-0.109,0.219-0.328,0.328-0.545,0.328l0,0
		C82.502,216.064,82.502,216.064,82.393,216.064z M153.898,216.5c-0.111-0.326,0-0.654,0.326-0.764l0,0
		c0.328-0.109,0.654,0,0.764,0.328l0,0c0.109,0.327-0.109,0.655-0.326,0.764l0,0c-0.109,0-0.109,0-0.221,0l0,0
		C154.225,216.828,154.008,216.72,153.898,216.5z M85.559,217.266c-0.328-0.109-0.438-0.438-0.328-0.766l0,0
		c0.109-0.326,0.438-0.436,0.764-0.326l0,0c0.328,0.109,0.438,0.436,0.328,0.764l0,0c-0.109,0.219-0.328,0.328-0.547,0.328l0,0
		C85.668,217.266,85.668,217.266,85.559,217.266z M150.732,217.592c-0.109-0.326,0.109-0.654,0.326-0.764l0,0
		c0.328-0.108,0.654,0.109,0.764,0.328l0,0c0.109,0.328-0.109,0.654-0.326,0.764l0,0c-0.109,0-0.109,0-0.219,0l0,0
		c-0.219,0-0.436-0.109-0.545-0.436V217.592z M88.725,218.356c-0.328-0.108-0.438-0.437-0.328-0.765l0,0
		c0.109-0.326,0.438-0.436,0.764-0.326l0,0c0.328,0.108,0.438,0.436,0.328,0.764l0,0c-0.109,0.219-0.328,0.438-0.547,0.438l0,0
		c-0.107,0-0.107,0-0.217,0V218.356z M147.566,218.574c-0.109-0.326,0.107-0.654,0.326-0.654l0,0
		c0.328-0.109,0.654,0.109,0.764,0.328l0,0c0.109,0.326-0.109,0.654-0.326,0.764l0,0c-0.109,0-0.109,0-0.219,0l0,0
		C147.893,219.012,147.674,218.793,147.566,218.574z M92,219.23L92,219.23c-0.328-0.109-0.439-0.438-0.439-0.764l0,0
		c0.111-0.328,0.439-0.438,0.656-0.438l0,0c0.328,0.109,0.438,0.438,0.438,0.764l0,0c-0.109,0.219-0.328,0.438-0.547,0.438l0,0H92z
		 M144.4,219.339c-0.109-0.327,0.107-0.654,0.436-0.654l0,0c0.328-0.11,0.656,0.108,0.656,0.437l0,0
		c0.107,0.328-0.111,0.654-0.438,0.654l0,0h-0.109l0,0C144.727,219.775,144.508,219.558,144.4,219.339z M95.273,219.994
		c-0.326-0.109-0.438-0.327-0.438-0.655l0,0c0.111-0.327,0.33-0.437,0.656-0.437l0,0c0.328,0.109,0.438,0.328,0.438,0.655l0,0
		c-0.109,0.218-0.328,0.437-0.547,0.437l0,0H95.273z M141.125,220.104c-0.109-0.328,0.109-0.654,0.436-0.654l0,0
		c0.328-0.11,0.656,0.108,0.656,0.436l0,0c0.109,0.328-0.109,0.655-0.438,0.655l0,0h-0.109l0,0
		C141.342,220.54,141.125,220.321,141.125,220.104z M98.549,220.758c-0.326-0.108-0.547-0.326-0.438-0.654l0,0
		c0.111-0.328,0.328-0.546,0.656-0.437l0,0c0.328,0.108,0.545,0.327,0.438,0.654l0,0c0,0.219-0.328,0.437-0.549,0.437l0,0H98.549z
		 M137.85,220.758c0-0.326,0.109-0.654,0.436-0.654l0,0c0.328-0.109,0.656,0.109,0.656,0.437l0,0
		c0.109,0.327-0.109,0.655-0.438,0.655l0,0h-0.109l0,0C138.176,221.195,137.85,220.977,137.85,220.758z M101.824,221.414
		c-0.326,0-0.547-0.328-0.438-0.656l0,0c0-0.326,0.328-0.545,0.656-0.437l0,0c0.328,0,0.545,0.328,0.436,0.655l0,0
		c-0.107,0.328-0.326,0.438-0.547,0.438l0,0H101.824z M134.574,221.305c0-0.328,0.219-0.655,0.436-0.655l0,0
		c0.328,0,0.547,0.218,0.656,0.437l0,0c0.109,0.328-0.219,0.654-0.438,0.654l0,0h-0.107l0,0
		C134.793,221.74,134.574,221.522,134.574,221.305z M105.207,221.959c-0.326,0-0.545-0.327-0.434-0.654l0,0
		c0-0.328,0.324-0.547,0.654-0.438l0,0c0.326,0,0.545,0.328,0.436,0.655l0,0c0,0.327-0.326,0.437-0.545,0.437l0,0H105.207z
		 M131.299,221.74c0-0.326,0.219-0.545,0.547-0.654l0,0c0.326,0,0.545,0.219,0.654,0.546l0,0c0,0.327-0.219,0.655-0.545,0.655l0,0
		c0,0,0,0-0.109,0l0,0C131.518,222.287,131.299,222.068,131.299,221.74z M108.482,222.396L108.482,222.396
		c-0.326,0-0.545-0.328-0.545-0.656l0,0c0-0.326,0.326-0.545,0.656-0.545l0,0c0.326,0,0.545,0.327,0.545,0.654l0,0
		c0,0.328-0.328,0.547-0.545,0.547l0,0C108.594,222.396,108.594,222.396,108.482,222.396z M127.914,222.068
		c0-0.328,0.219-0.546,0.547-0.654l0,0c0.328,0,0.545,0.218,0.654,0.545l0,0c0,0.328-0.219,0.546-0.545,0.655l0,0l0,0l0,0
		c-0.328,0-0.545-0.218-0.545-0.546H127.914z M111.758,222.723c-0.328,0-0.545-0.326-0.545-0.654l0,0
		c0-0.328,0.326-0.546,0.656-0.546l0,0c0.324,0,0.545,0.327,0.545,0.655l0,0c0,0.327-0.221,0.545-0.545,0.545l0,0l0,0H111.758z
		 M124.531,222.287c0-0.328,0.219-0.547,0.545-0.547l0,0c0.328,0,0.547,0.219,0.654,0.547l0,0c0,0.327-0.217,0.546-0.545,0.654l0,0
		l0,0l0,0c-0.326,0-0.547-0.219-0.547-0.545L124.531,222.287z M115.033,222.833L115.033,222.833c-0.328,0-0.545-0.328-0.545-0.546
		l0,0c0-0.328,0.326-0.547,0.545-0.547l0,0c0.326,0,0.545,0.328,0.545,0.656l0,0c0,0.326-0.219,0.545-0.545,0.545l0,0l0,0V222.833z
		 M121.146,222.396c0-0.328,0.219-0.547,0.545-0.547l0,0c0.328,0,0.549,0.219,0.549,0.547l0,0c0,0.326-0.221,0.545-0.549,0.545l0,0
		C121.365,222.941,121.146,222.723,121.146,222.396z M118.418,222.941c-0.328,0-0.547-0.219-0.547-0.545l0,0
		c0-0.328,0.219-0.547,0.547-0.547l0,0c0.326,0,0.547,0.219,0.547,0.547l0,0C118.965,222.723,118.744,222.941,118.418,222.941
		L118.418,222.941z"/>
</g>
</svg>
